<svg xmlns="http://www.w3.org/2000/svg" viewBox="0 0 64 64" id="Checkmark"><g data-name="Layer 1" fill="#ffffff" class="color000000 svgShape"><rect width="22" height="8" x="18" y="3" rx="2" fill="#ffffff" class="color000000 svgShape"></rect><path d="M48,20A12.99963,12.99963,0,0,0,35,33c.69864,17.252,25.3249,17.22689,26-.00011A13.01394,13.01394,0,0,0,48,20Zm5.91,11.91-6,6a1.98221,1.98221,0,0,1-2.81994,0l-3-3A1.99419,1.99419,0,0,1,44.91,32.09l1.59,1.58,4.59-4.58A1.99416,1.99416,0,0,1,53.91,31.91Z" fill="#ffffff" class="color000000 svgShape"></path><path d="M5,61H53a2.00591,2.00591,0,0,0,2-2V45.1059c-9.04968,5.4631-21.14562-1.49474-20.99987-12.1061C33.8013,22.43068,45.99081,15.41229,55,20.88953V9a2.00587,2.00587,0,0,0-2-2H41V9a3.00328,3.00328,0,0,1-3,3H20a3.00328,3.00328,0,0,1-3-3V7H5A2.00587,2.00587,0,0,0,3,9V59A2.00591,2.00591,0,0,0,5,61ZM9,23a2.00587,2.00587,0,0,1,2-2H27a2.00587,2.00587,0,0,1,2,2v1a2.00591,2.00591,0,0,1-2,2H11a2.00591,2.00591,0,0,1-2-2ZM9,33a2.00587,2.00587,0,0,1,2-2H27a2.00587,2.00587,0,0,1,2,2v1a2.00591,2.00591,0,0,1-2,2H11a2.00591,2.00591,0,0,1-2-2ZM9,43a2.00587,2.00587,0,0,1,2-2H27a2.00587,2.00587,0,0,1,2,2v1a2.00591,2.00591,0,0,1-2,2H11a2.00591,2.00591,0,0,1-2-2Z" fill="#ffffff" class="color000000 svgShape"></path></g></svg>