<svg xmlns="http://www.w3.org/2000/svg" fill-rule="evenodd" stroke-linejoin="round" stroke-miterlimit="2" clip-rule="evenodd" viewBox="0 0 101 101" id="creativebook"><path d="M35.356,38.507c-2.227,-3.268 -3.552,-7.299 -3.552,-11.663c-0,-11.06 8.465,-19.892 18.696,-19.892c10.232,0 18.696,8.832 18.696,19.892c-0,4.373 -1.33,8.412 -3.563,11.682l9.256,-3.455c1.051,-0.392 2.219,-0.316 3.209,0.21c0.99,0.526 1.708,1.45 1.972,2.54l1.597,6.596l3.851,-0c1.811,-0 3.387,1.241 3.811,3.003l10.062,41.79c0.281,1.168 0.012,2.4 -0.732,3.344c-0.743,0.943 -1.878,1.494 -3.079,1.494l-90.16,0c-1.201,0 -2.336,-0.551 -3.079,-1.494c-0.743,-0.944 -1.013,-2.176 -0.732,-3.344l10.063,-41.79c0.424,-1.762 1.999,-3.003 3.811,-3.003l3.85,-0l1.597,-6.596c0.264,-1.089 0.981,-2.013 1.97,-2.539c0.989,-0.526 2.156,-0.603 3.206,-0.213l9.25,3.438Zm50.786,42.761l-35.642,4.841l-35.641,-4.841c-1.099,-0.149 -2.084,-0.757 -2.71,-1.673c-0.626,-0.917 -0.835,-2.056 -0.574,-3.134l6.809,-28.124l-2.901,-0l-10.063,41.791l90.16,-0l-10.062,-41.791l-2.902,-0l6.809,28.124c0.261,1.078 0.053,2.217 -0.573,3.133c-0.625,0.916 -1.61,1.524 -2.71,1.674Zm-24.219,-37.174c-1.33,2.77 -2.035,5.821 -2.035,8.935l-0.002,0.185c-0.024,1.428 -0.809,2.668 -1.965,3.334l-0,4.371c-0,3.127 -2.402,5.693 -5.461,5.953l-0,15.013l33.155,-4.502l-9.355,-38.64l-14.337,5.351Zm-22.856,-0.026l-14.327,-5.325l-9.355,38.64l33.155,4.488l-0,-14.999c-3.059,-0.26 -5.461,-2.826 -5.461,-5.953l-0,-4.371c-1.174,-0.677 -1.965,-1.945 -1.965,-3.398l-0,-0.121c-0,-3.124 -0.709,-6.185 -2.047,-8.961Zm14.934,13.002l-7.002,-0l-0,3.849c-0,1.135 0.92,2.055 2.054,2.055l2.894,-0c1.135,-0 2.054,-0.92 2.054,-2.055l-0,-3.849Zm-8.967,-4.041c-0,-5.683 -1.971,-11.19 -5.578,-15.582c-2.321,-2.82 -3.732,-6.535 -3.732,-10.603c-0,-8.815 6.621,-15.972 14.776,-15.972c8.155,-0 14.776,7.157 14.776,15.972c-0,4.068 -1.41,7.783 -3.731,10.604c-3.606,4.392 -5.577,9.898 -5.577,15.581c-0.002,0.079 -0.002,0.121 -0.002,0.121l-10.932,-0l-0,-0.121Z" fill="#ffffff" class="color000000 svgShape"></path></svg>