<svg xmlns="http://www.w3.org/2000/svg" viewBox="0 0 24 24" id="letsencrypt"><path fill="#11386F" d="M18.16 12.91H5.84c-.52 0-.95.43-.95.96v9.17c0 .53.43.96.95.96h12.32c.52 0 .95-.43.95-.96v-9.17c0-.53-.43-.96-.95-.96zm-5.54 6.02v1.24c0 .35-.28.63-.62.63s-.62-.28-.62-.63v-1.24h-.01c-.38-.23-.64-.64-.64-1.11 0-.71.57-1.28 1.27-1.28s1.27.57 1.27 1.28c0 .47-.26.88-.65 1.11z"></path><path fill="#F5A106" d="M17 11.43v1.48h-2.87v-1.48c0-1.19-.95-2.15-2.13-2.15-1.17 0-2.13.96-2.13 2.15v1.48H7v-1.48c0-2.78 2.24-5.04 5-5.04s5 2.26 5 5.04zm2.107-8.093-2.35 1.945-.002.001a.88.88 0 0 0 .554 1.555h.004a.867.867 0 0 0 .554-.2l2.35-1.945.001-.001a.876.876 0 0 0 .317-.677.875.875 0 0 0-1.428-.678zM11.127.878v3.014c0 .485.39.878.873.878a.875.875 0 0 0 .872-.878V.878A.875.875 0 0 0 12 0a.876.876 0 0 0-.873.878zm12.123 9.786a.876.876 0 0 0-.873-.878h-3a.876.876 0 0 0-.873.878c0 .485.391.878.873.878h3a.876.876 0 0 0 .873-.878zm-21.628.878h2.971a.876.876 0 0 0 .873-.878.875.875 0 0 0-.873-.878H1.622a.875.875 0 0 0-.872.878c0 .485.391.878.872.878zm5.065-4.704h.001a.879.879 0 0 0 .554-1.556l-2.35-1.945.001.001a.861.861 0 0 0-.555-.201.879.879 0 0 0-.555 1.556l2.35 1.945v-.001a.858.858 0 0 0 .553.201h.001z"></path></svg>