<svg xmlns="http://www.w3.org/2000/svg" viewBox="0 0 24 24" id="linux"><path fill="#303c42" d="M20.926 19.074c-.207-.136-.421-.276-.573-.428-.088-.088-.048-.497-.026-.717.042-.422.084-.857-.199-1.17-.036-.04-.099-.078-.157-.117.014-.204.029-.405.029-.642 0-3.247-1.496-5.12-2.697-6.625C16.575 8.463 16 7.743 16 7l.001-.233c.008-1.38.024-4.253-1.502-5.788C13.853.33 13.012 0 12 0 9.899 0 8.5 1.021 8.5 6c0 1.371-.577 2.493-1.187 3.682-.268.521-.544 1.06-.776 1.63-.419 1.03-1.333 3.399-1.501 4.784-.54.227-.697.835-.785 1.197l-.081.334c-.074.046-.354.101-.538.138C3.021 17.885 2 18.087 2 19c0 .266.04.491.083.726.077.416.15.809-.067 1.649A.482.482 0 0 0 2 21.5c0 1.202 1.867 1.358 2.983 1.451.186.016.34.027.439.043.154.024.476.173.788.316.666.308 1.496.69 2.29.69.365 0 .673-.164.906-.434l.011.009C9.639 23.328 11.112 23 12 23h3.061c.055.193.135.385.288.553.27.297.657.447 1.151.447 1.298 0 1.927-.669 2.536-1.315.103-.109.208-.221.318-.331.253-.253.749-.434 1.187-.594.717-.262 1.459-.533 1.459-1.26 0-.721-.595-1.112-1.074-1.426z"></path><path fill="#fff" d="M7.463 11.688c.215-.529.481-1.048.739-1.55.343-.668.688-1.35.938-2.086C9.748 8.589 10.621 9 11 9c.209 0 1.874-.559 2.83-1.199 1.92 3.928 2.156 6.516 2.168 8.949-.483.523-.733 1.786-.862 2.951-1.471 1.483-4.412 1.383-5.705 1.177a3.64 3.64 0 0 0-1.145-1.288c-.493-.343-.875-1.144-1.212-1.85-.326-.681-.621-1.291-1.044-1.573.139-1.039.829-2.994 1.433-4.479z"></path><path fill="#f68919" d="M8.5 23c-.575 0-1.294-.332-1.872-.598-.424-.196-.759-.351-1.05-.396a7.716 7.716 0 0 0-.512-.052c-1.489-.124-1.945-.305-2.054-.442.237-.983.136-1.528.054-1.968-.032-.176-.066-.345-.071-.535.083-.116.588-.216.832-.264.425-.084.792-.157 1.027-.392.222-.222.296-.528.369-.825.128-.528.181-.528.247-.533.177.079.492.739.701 1.176.391.818.833 1.745 1.543 2.239 1.006.701 1.222 1.769 1.054 2.303-.06.19-.149.287-.268.287zm11.697-2.18c-.535.195-1.141.416-1.55.826-.118.118-.229.236-.339.353-.547.581-.942 1-1.808 1-.201 0-.339-.041-.412-.12-.15-.165-.114-.556-.098-.723.006-.067.01-.121.01-.156.004-.655.15-2.438.369-3.584.04.057.08.115.129.167A1.34 1.34 0 0 0 17.5 19l.176.001.17.001c.5 0 1.038-.042 1.465-.448.025.288.109.574.335.8.224.224.494.401.731.557.376.247.622.42.638.53-.079.109-.524.272-.818.379zM11.454 6.001c.903.19 1.78.583 1.996.874-.505.361-2.111 1.088-2.438 1.125-.345-.039-1.418-.737-1.517-.965.095-.286 1.202-1.005 1.959-1.034z"></path><path fill="#303c42" d="M13.296 5.574c.158-.15.268-.402.268-.703 0-.468-.253-.847-.565-.847s-.565.379-.565.847c0 .141.029.269.07.386.252.082.526.187.792.317z"></path><path fill="#fff" d="M13 3.176c-.468 0-.847.569-.847 1.271 0 .288.076.541.183.755.074.023.19.062.168.055a1.152 1.152 0 0 1-.07-.386c0-.468.253-.847.565-.847s.565.379.565.847c0 .301-.111.553-.268.703l.051.027c.294-.199.5-.638.5-1.153 0-.703-.379-1.272-.847-1.272zm-2.095 1.907c.075-.19.13-.399.13-.636 0-.702-.379-1.271-.847-1.271s-.847.569-.847 1.271c0 .472.179.867.434 1.086.011-.014.036-.019.051-.026a1.036 1.036 0 0 1-.202-.636c0-.468.253-.847.565-.847s.565.379.565.847c0 .094-.017.18-.036.264.044-.01.045-.018.187-.052z"></path><linearGradient id="a" x1="10.376" x2="17.154" y1="6.817" y2="13.596" gradientUnits="userSpaceOnUse"><stop offset="0" stop-opacity=".1"></stop><stop offset="1" stop-opacity="0"></stop></linearGradient><path fill="url(#a)" d="M13.83 7.801C12.874 8.441 11.209 9 11 9c-.379 0-1.252-.411-1.859-.947l6.778 6.778c-.165-1.927-.66-4.107-2.089-7.03z"></path><linearGradient id="b" x1="5.245" x2="23.086" y1="10.06" y2="18.379" gradientUnits="userSpaceOnUse"><stop offset="0" stop-color="#fff" stop-opacity=".2"></stop><stop offset="1" stop-color="#fff" stop-opacity="0"></stop></linearGradient><path fill="url(#b)" d="M20.926 19.074c-.207-.136-.421-.276-.573-.428-.088-.088-.048-.497-.026-.717.042-.422.084-.857-.199-1.17-.036-.04-.099-.078-.157-.117.014-.204.029-.405.029-.642 0-3.247-1.496-5.12-2.697-6.625C16.575 8.463 16 7.743 16 7l.001-.233c.008-1.38.024-4.253-1.502-5.788C13.853.33 13.012 0 12 0 9.899 0 8.5 1.021 8.5 6c0 1.371-.577 2.493-1.187 3.682-.268.521-.544 1.06-.776 1.63-.419 1.03-1.333 3.399-1.501 4.784-.54.227-.697.835-.785 1.197l-.081.334c-.074.046-.354.101-.538.138C3.021 17.885 2 18.087 2 19c0 .266.04.491.083.726.077.416.15.809-.067 1.649A.482.482 0 0 0 2 21.5c0 1.202 1.867 1.358 2.983 1.451.186.016.34.027.439.043.154.024.476.173.788.316.666.308 1.496.69 2.29.69.365 0 .673-.164.906-.434l.011.009C9.639 23.328 11.112 23 12 23h3.061c.055.193.135.385.288.553.27.297.657.447 1.151.447 1.298 0 1.927-.669 2.536-1.315.103-.109.208-.221.318-.331.253-.253.749-.434 1.187-.594.717-.262 1.459-.533 1.459-1.26 0-.721-.595-1.112-1.074-1.426z"></path></svg>