<svg xmlns="http://www.w3.org/2000/svg" viewBox="0 0 3000 3000" id="pug-is-wearing-hat-and-sunglasses"><linearGradient id="a" x1="199.636" x2="201.226" y1="-1920.521" y2="-1920.521" gradientTransform="matrix(1238.0146 0 0 -1238.0146 -246597.844 -2375877)" gradientUnits="userSpaceOnUse"><stop offset="0" stop-color="#e961ff"></stop><stop offset="1" stop-color="#ff7b4d"></stop></linearGradient><path fill="url(#a)" d="M1944.19 1370.707c-13.424 19.699-21.375 23.528-21.375 23.528s17.745 14.789 4.622 74.589c-13.126 59.895-57.215 112.858-57.215 112.858l-30.964 31.15-2.219 49.356 8.412 5.27s68.676 92.706 102.783 188.65c31.261 88.02 20.747 182.02 18.775 197.094l555.545-361.327-578.364-321.168M554.851 618.052l121.68 2274.474 491.59-319.729-137.811 86.434s-32.719-47.415-69.32-157.316c-36.604-109.991-42.888-285.978-42.888-285.978s-18.394-4.622-64.609-24.217c-46.216-19.688-129.956-110.916-125.889-232.832 4.065-121.914 115.258-207.968 115.258-207.968l4.993-6.1v-.092l36.602-44.644 90.211-45.475-3.882-38.636-11.832-16.36s-67.935-71.54-73.665-151.584c-3.143-43.35-3.513-45.293-11.832-54.074-7.116-7.393-19.778-19.87-44.734-66.457-54.349-101.674-70.524-306.219-70.524-306.219s-30.057 1.502-47.752 1.502c-4.248 0-7.781-.087-10.017-.301-11.553-1.201-35.495-85.59-17.376-99.917 6.069-4.806 47.903-6.408 100.974-6.408 106.151 0 257.285 6.408 257.285 6.408s26.316-6.509 66.271-16.429l-483.41-268.44-69.323-19.642"></path><linearGradient id="b" x1="199.558" x2="201.147" y1="-1920.679" y2="-1920.679" gradientTransform="matrix(916.0977 0 0 -916.0977 -182137.875 -1757834.5)" gradientUnits="userSpaceOnUse"><stop offset="0" stop-color="#dd8968"></stop><stop offset="1" stop-color="#e9ce91"></stop></linearGradient><path fill="url(#b)" d="M1137.168 1672.287c4.251-.842 8.599-1.235 13.011-1.235 54.747 0 119.714 60.447 141.222 72.631 23.155 13.078 36.205 17.836 44.088 17.876l-.003-.027s28.954-8.431 45.265-8.431c2.59 0 4.86.212 6.646.705 2.689.738 4.762 1.423 6.428 2.037l3.717.092s6.422.431 15.096 1c5.721-2.588 12.15-6.876 21.821-6.876.565 0 1.139.015 1.726.045 14.161.722 22.7 8.141 22.7 8.141l.516.976a292.428 292.428 0 0 0 7.283-3.963c13.223-7.439 38.047-21.465 38.047-21.465s44.446-39.726 97.456-53.464c10.228-2.701 20.751-4.379 31.368-4.568a96.228 96.228 0 0 1 1.929-.019c63.836-.008 70.065 63.818 70.065 63.818l-4.134 75.749 23.216 94.227s-7.8 43.065-43.67 70.973c-10.73 8.332-23.963 15.399-40.383 19.443-7.487 1.87-15.259 2.717-23.165 2.717-66.966 0-144.278-60.665-153.176-73.8-2.575-3.833-3.77-5.29-4.875-5.29-1.304 0-2.483 2.028-5.658 4.568-2.293 1.8-5.662 3.888-10.933 5.658-4.272 2.233-10.512 3.851-19.625 3.851a82.307 82.307 0 0 1-3.317-.068c-2.877.151-5.75.22-8.597.22-7.775 0-15.392-.522-22.583-1.35-18.567-.665-32.285-1.282-33.828-2.416-.629-.461-2.793-2.605-5.616-5.488-6.169-1.763-9.775-3.07-9.775-3.07s-10.064 9.991-27.143 22.728c0 0-.08.081-.189.279-30.371 22.69-82.592 54.215-138.637 54.215-8.298 0-16.68-.691-25.087-2.204-63.147-11.378-80.947-57.664-80.968-100.087-.012-22.902 5.158-44.678 11.171-59.228 3.164-7.657 4.23-15.983 4.227-24.796-.005-18.327-4.634-38.763-4.639-59.681-.007-23.526 5.834-47.662 30.673-70.091 8.598-7.851 18.176-12.391 28.33-14.332m838.238-940.408s-112.116 17.008-135.225 17.283c-23.014.372-279.046 42.242-399.759 73.392-83.601 21.572-242.834 61.232-332.841 83.58-39.955 9.92-66.271 16.429-66.271 16.429s-151.133-6.408-257.285-6.408c-53.071 0-94.905 1.602-100.974 6.408-18.119 14.327 5.823 98.716 17.376 99.917 2.237.215 5.769.301 10.017.301 17.695 0 47.752-1.502 47.752-1.502s16.175 204.545 70.524 306.219c24.956 46.586 37.618 59.063 44.734 66.457 8.319 8.781 8.689 10.723 11.832 54.074 5.73 80.044 73.665 151.584 73.665 151.584l11.832 16.36 3.882 38.636-90.211 45.475-36.602 44.644v.092l-4.993 6.1s-111.193 86.054-115.258 207.968c-4.067 121.916 79.672 213.144 125.889 232.832 46.214 19.595 64.609 24.217 64.609 24.217s6.285 175.986 42.888 285.978c36.601 109.901 69.32 157.316 69.32 157.316l137.811-86.434 726.225-455.483 72.374-62.022s.109-.719.289-2.091c1.972-15.073 12.486-109.074-18.775-197.094-34.107-95.944-102.783-188.65-102.783-188.65l-8.412-5.27 2.219-49.356 30.964-31.15s44.089-52.963 57.215-112.858c13.124-59.8-4.622-74.589-4.622-74.589s7.951-3.829 21.375-23.528c14.715-21.594 36.008-62.259 60.611-137.856 47.136-144.468 40.484-216.934 40.484-216.934s16.192 2.648 32.036 2.648c13.005 0 25.777-1.786 29.152-8.286 7.578-14.417 26.065-84.943 26.065-84.943l-13.308-15.528h-34.664s-22.552-69.969-41.593-100.563c-19.037-30.594-67.564-77.365-67.564-77.365"></path><linearGradient id="c" x1="198.69" x2="200.28" y1="-1923.744" y2="-1923.744" gradientTransform="scale(136.8833 -136.8833) rotate(-.241 455714.704 44113.621)" gradientUnits="userSpaceOnUse"><stop offset="0" stop-color="#af533e"></stop><stop offset="1" stop-color="#de765e"></stop></linearGradient><path fill="url(#c)" d="M1492.456 1397.56c-.154 35.411-47.741 63.907-106.304 63.663-58.536-.244-105.889-29.137-105.736-64.546.136-35.394 47.732-63.89 106.277-63.646 58.563.243 105.907 29.136 105.763 64.529z"></path><path fill="#9b3a69" d="M1279.776 1374.994s-5.19 11.418 58.797 16.364c63.989 4.947 137.048-4.278 146.968-10.534 9.902-6.237 6.057 28.027 6.057 28.027s-14.624-6.859-15.688-6.354c-1.083.506-36.466-.821-47.659 14.722-13.883 19.244-16.825 24.273-15.408 38.959 1.435 14.694-27.739 4.611-34.815 3.492-7.095-1.11-24.444-9.641-24.444-9.641s-7.527-25.318-31.763-35.184c-24.236-9.848-33.931-1.119-33.931-1.119l-13.539-24.254 5.425-14.478z"></path><path fill="#683e57" d="M1421.111 1425.225s-13.847 25.68-6.472 28.796c7.356 3.104 59.665-21.123 64.583-31.204 4.929-10.075 5.046-16.537 2.844-17.764-2.22-1.219-11.291-4.812-14.577-4.341-3.304.458-29.201-1.835-46.378 24.513zm-134.448-15.598s5.532 18.659 22.295 25.292c16.771 6.643 27.801 16.158 41.006 17.629 13.197 1.479 5.822-16.546 2.646-23.135-3.169-6.581-25.31-21.448-38.544-25.111-13.25-3.666-20.255.594-25.95 1.416-5.686.83-13.765-3.447-13.765-3.447l12.312 7.356z"></path><linearGradient id="d" x1="196.559" x2="198.148" y1="-1933.351" y2="-1933.351" gradientTransform="matrix(39.2188 .1647 .1647 -39.2188 -5990.537 -74428.57)" gradientUnits="userSpaceOnUse"><stop offset="0" stop-color="#af533e"></stop><stop offset="1" stop-color="#de765e"></stop></linearGradient><path fill="url(#d)" d="m1452.632 1402.561 8.141-2.834s-30.219-6.319-53.508 24.29c-17.016 22.349.279 41.143 2.012 27.431 1.733-13.702 17.241-37.261 24.11-40.736 6.869-3.476 19.245-8.151 19.245-8.151z"></path><path fill="#fffafd" d="M1431.915 1381.664c-.018 2.699-9.432 4.857-21.058 4.847-11.617-.026-21.049-2.229-21.04-4.928 0-2.699 9.441-4.874 21.058-4.847 11.617.028 21.04 2.212 21.04 4.928zm29.39-4.133c.172 1.58-5.163 3.447-11.887 4.143-6.734.705-12.34-.009-12.493-1.616-.171-1.58 5.155-3.439 11.889-4.143 6.733-.696 12.32.017 12.491 1.616z"></path><linearGradient id="e" x1="198.775" x2="200.365" y1="-1922.55" y2="-1922.55" gradientTransform="matrix(217.2118 0 0 -217.2118 -42124.453 -416089.625)" gradientUnits="userSpaceOnUse"><stop offset="0" stop-color="#af533e"></stop><stop offset="1" stop-color="#de765e"></stop></linearGradient><path fill="url(#e)" d="M1286.428 1387.54s-4.152-7.744-40.857-3.899c-36.72 3.835-131.483 49.753-174.702 107.179-43.236 57.453-2.965 89.424 25.166 113.723 28.126 24.273 130.873 48.545 172.331 25.463 41.459-23.107 94.75-77.988 103.046-105.328 8.285-27.324 16.942-63.456 16.942-63.456s-119.401-4.629-101.926-73.682z"></path><linearGradient id="f" x1="198.932" x2="200.521" y1="-1923.277" y2="-1923.277" gradientTransform="matrix(178.7776 0 0 -178.7776 -34310.242 -342241.969)" gradientUnits="userSpaceOnUse"><stop offset="0" stop-color="#af533e"></stop><stop offset="1" stop-color="#de765e"></stop></linearGradient><path fill="url(#f)" d="m1402.986 1503.882-14.081-10.372s-45.916 84.378-80.858 112.802c-34.941 28.425-53.77 34.481-53.77 34.481s48.741 63.807 143.384 59.069c94.632-4.731 133.554-60.576 133.554-60.576s-62.679-15.436-93.478-66.255c-30.798-50.826-34.751-69.149-34.751-69.149z"></path><linearGradient id="g" x1="199.374" x2="200.964" y1="-1922.541" y2="-1922.541" gradientTransform="matrix(218.611 0 0 -218.611 -42184.559 -418773.781)" gradientUnits="userSpaceOnUse"><stop offset="0" stop-color="#af533e"></stop><stop offset="1" stop-color="#de765e"></stop></linearGradient><path fill="url(#g)" d="m1428.558 1447.602-27.738 9.776s.785 83.656 45.348 127.543c44.582 43.895 122.155 67.283 186.106 46.26 63.961-21.024 107.188-75.298 107.188-96.14 0-20.816-43.227-75.896-77.87-94.552-34.635-18.647-168.785-49.635-168.785-49.635l-14.515 18.837c.001 0-.306 25.5-49.734 37.911z"></path><path fill="#9b3a69" d="M1121.792 1442.386s-18.057 68.383 9.577 103.125c27.635 34.734 92.634 43.21 128.839 27.521 36.186-15.669 74.359-53.796 74.359-53.796s-10.859 56.126-64.006 93.711c-53.129 37.587-138.969 12.312-154.563 3.629-15.606-8.683-85.236-74.693-70.46-100.915 14.762-26.203 76.254-73.275 76.254-73.275zm353.947-16.059s-24.57 77.067 53.589 132.471c78.177 55.412 195.936 6.563 195.936 6.563s-38.01 64.646-142.933 78.258c-104.914 13.629-153.484-91.312-153.484-91.312s-25.752-48.778-23.685-74.891l2.076-26.113 68.501-24.976z"></path><path fill="#9b3a69" d="m1423.178 1558.798 11.689 15.011s-62.579 13.547-78.611 60.538c-16.031 46.974 62.327 67.283 109.337 46.478 47.009-20.797-16.41 34.455-95.363 21.817-78.981-12.638-123.581-52.679-116.468-63.644 7.104-10.968 83.683-46.352 107.387-86.691 23.676-40.348 31.601-85.687 31.601-85.687l30.428 92.178z"></path><path fill="#fffafd" d="M1669.941 1489.99c-2.212 2.879-16.094-4.143-31.015-15.642-14.902-11.509-25.201-23.172-22.972-26.042 2.22-2.87 16.094 4.135 31.006 15.653 14.902 11.508 25.193 23.161 22.981 26.031zm6.002 9.234c1.002-1.291 7.212 1.85 13.883 7.005 6.679 5.163 11.291 10.379 10.29 11.661-.984 1.273-7.195-1.86-13.874-7.003-6.67-5.155-11.282-10.373-10.299-11.663z"></path><linearGradient id="h" x1="199.354" x2="200.943" y1="-1921.629" y2="-1921.629" gradientTransform="scale(413.4313 -413.4313) rotate(.567 -193556.672 -20839.442)" gradientUnits="userSpaceOnUse"><stop offset="0" stop-color="#37d190"></stop><stop offset="1" stop-color="#71b4fe"></stop></linearGradient><path fill="url(#h)" d="M1388.65 1936.459c7.191.828 14.808 1.35 22.583 1.35 2.846 0 5.72-.07 8.597-.22-11.007-.439-21.722-.79-31.18-1.13m5.176-180.617c5.192 1.913 6.431 3.138 9.987 3.138.84 0 1.809-.068 2.991-.212 1.93-.235 3.84-.931 5.835-1.834-8.674-.569-15.096-1-15.096-1l-3.717-.092m72.859-.584a294.3 294.3 0 0 1-7.283 3.963l12.417 23.477c-1.667-10.51-3.421-19.621-5.134-27.44m-24.197 58.898c-5.861 0-10.626-4.716-10.69-10.572-.054-5.905 4.684-10.732 10.588-10.797h.096c5.859 0 10.637 4.709 10.691 10.58.064 5.902-4.676 10.734-10.569 10.788l-.116.001m-49.436-11.446c-4.164 0-7.542-3.356-7.595-7.529-.026-4.199 3.339-7.638 7.537-7.681h.068c4.176 0 7.577 3.342 7.613 7.527.045 4.207-3.331 7.636-7.529 7.684l-.094-.001m242.433-126.968c-.633 0-1.284.006-1.929.019-10.616.189-21.14 1.867-31.368 4.568 2.129 1.734 3.737 4.027 4.686 6.787 0 0-63.547 42.687-66.355 75.814-2.905 33.108 20.689 36.221 20.689 36.221s-57.733 12.484-64.89 45.377c-7.168 32.882 36.114 43.361 36.114 43.361s-15.47 34.066 15.436 65.659c23.962 24.408 94.894 27.011 125.722 27.011 2.815 0 5.291-.022 7.371-.05-10.73 8.332-23.963 15.399-40.383 19.443-7.487 1.87-15.259 2.717-23.165 2.717-66.966 0-144.278-60.665-153.176-73.8-2.575-3.833-3.77-5.29-4.875-5.29-1.304 0-2.483 2.028-5.658 4.568-1.066-4.529-1.652-7.292-1.652-7.292s32.053-40.158 23.08-114.113a734.64 734.64 0 0 0-.605-4.948l-4.332 9.588s-5.398-32.54-21.59-32.541c-.781 0-1.587.076-2.419.234-18.063 3.457-32.586 53.67-32.586 53.67s-.858-55.424-28.037-55.43c-3.426 0-7.266.879-11.579 2.862 0 0 12.777 53.734 4.08 93.96a10.07 10.07 0 0 1 4.747 8.46c.064 5.552-4.396 10.103-9.965 10.165h-.084l-.177-.002c-7.937 28.652 5.329 30.353 8.584 30.353.437 0 .693-.03.693-.03s25.843-15.571 15.047-55.026c0 0 13.566 27.296 11.979 42.631-.941 9.176 14.733 11.017 27.452 11.017 8.515 0 15.703-.824 15.703-.824s.205 7.97-9.272 12.922c5.271-1.77 8.64-3.858 10.933-5.658 3.175-2.54 4.354-4.568 5.658-4.568 1.105 0 2.3 1.456 4.875 5.29 8.898 13.135 86.209 73.8 153.176 73.8 7.906 0 15.677-.847 23.165-2.717 16.42-4.043 29.653-11.11 40.383-19.443 35.871-27.908 43.67-70.973 43.67-70.973l-23.216-94.227 4.134-75.749c.001.002-6.227-63.823-70.064-63.816m-485.306-4.69c-4.412 0-8.76.393-13.011 1.235l64.763 25.229s-54.957 13.863-58.345 72.219c-3.236 56.704 25.843 98.378 27.521 100.761-1.863-1.74-24.619-22.221-32.476-31.195 0 0-12.081 58.347 9.785 108.975 8.43 19.456 28.469 25.99 51.173 25.99 36.369 0 79.585-16.756 92.95-24.003 8.146-4.438 12.957-5.821 15.79-5.821 4.68-.001 3.96 3.771 3.96 3.771s-.08.081-.189.279c-30.371 22.69-82.592 54.215-138.637 54.215-8.298 0-16.68-.691-25.087-2.204-63.147-11.378-80.947-57.664-80.968-100.087.021 42.423 17.821 88.709 80.968 100.087 8.407 1.513 16.789 2.204 25.087 2.204 56.045 0 108.266-31.525 138.637-54.215.109-.198.189-.279.189-.279 17.079-12.737 27.143-22.728 27.143-22.728s3.605 1.307 9.775 3.07c-7.626-7.789-20.064-20.979-20.064-20.979l6.576-31.205c-8.801 3.861-26.698 9.237-44.03 14.06a9.73 9.73 0 0 1 7.874 9.456c.054 5.38-4.269 9.774-9.632 9.839h-.099c-5.335 0-9.675-4.294-9.72-9.65a9.685 9.685 0 0 1 3.244-7.354c-18.912 5.137-35.153 9.16-35.153 9.16s71.074-28.134 63.139-53.879c-7.932-25.717-111.074-60.612-111.074-60.612s67.045 2.509 100.317 8.629c2.708.498 5.196.727 7.484.727 25.833 0 26.039-29.168 26.039-29.168l5.165 31.339-3.781-37.357c-7.882-.04-20.933-4.797-44.088-17.876-21.51-12.186-86.477-72.633-141.225-72.633"></path><linearGradient id="i" x1="199.353" x2="200.943" y1="-1921.646" y2="-1921.646" gradientTransform="scale(413.4313 -413.4313) rotate(.567 -193556.672 -20839.442)" gradientUnits="userSpaceOnUse"><stop offset="0" stop-color="#4191b1"></stop><stop offset="1" stop-color="#4f8acc"></stop></linearGradient><path fill="url(#i)" d="M1602.189 1680.329c-53.01 13.738-97.456 53.464-97.456 53.464s-24.825 14.026-38.047 21.465c1.713 7.819 3.467 16.93 5.133 27.44l6.115 11.561-3.405 7.536c.204 1.623.406 3.272.605 4.948 8.973 73.955-23.08 114.113-23.08 114.113s.587 2.763 1.652 7.292c3.175-2.54 4.354-4.568 5.658-4.568 1.105 0 2.3 1.456 4.875 5.29 8.898 13.135 86.209 73.8 153.176 73.8 7.906 0 15.677-.847 23.165-2.717 16.42-4.043 29.653-11.11 40.383-19.443-2.08.029-4.556.05-7.371.05-30.829 0-101.76-2.604-125.722-27.011-30.906-31.593-15.436-65.659-15.436-65.659s-43.282-10.479-36.114-43.361c7.157-32.893 64.89-45.377 64.89-45.377s-23.594-3.113-20.689-36.221c2.808-33.127 66.355-75.814 66.355-75.814-.95-2.761-2.558-5.054-4.687-6.788"></path><linearGradient id="j" x1="199.354" x2="200.943" y1="-1921.625" y2="-1921.625" gradientTransform="scale(413.4313 -413.4313) rotate(.567 -193556.672 -20839.442)" gradientUnits="userSpaceOnUse"><stop offset="0" stop-color="#4191b1"></stop><stop offset="1" stop-color="#4f8acc"></stop></linearGradient><path fill="url(#j)" d="M1137.168 1672.287c-10.154 1.94-19.733 6.48-28.33 14.333-24.839 22.43-30.68 46.565-30.673 70.091.006 20.918 4.634 41.354 4.639 59.681.003 8.813-1.063 17.139-4.227 24.796-6.013 14.55-11.182 36.326-11.171 59.228.021 42.423 17.821 88.709 80.968 100.087 8.407 1.513 16.789 2.204 25.087 2.204 56.045 0 108.266-31.525 138.637-54.215.109-.198.189-.279.189-.279s.72-3.772-3.96-3.771c-2.833 0-7.645 1.383-15.79 5.821-13.364 7.247-56.581 24.003-92.95 24.003-22.704 0-42.743-6.534-51.173-25.99-21.866-50.628-9.785-108.975-9.785-108.975 7.858 8.974 30.614 29.455 32.476 31.195-1.678-2.383-30.757-44.057-27.521-100.761 3.388-58.356 58.345-72.219 58.345-72.219l-64.761-25.229"></path><path fill="#fffafd" d="M1656.239 1719.539c.054 7.023-5.56 12.773-12.591 12.836-7.014.071-12.764-5.561-12.827-12.574-.082-7.031 5.56-12.772 12.573-12.844 7.032-.073 12.773 5.56 12.845 12.582zm-75.262 37.497c.036 4.63-3.675 8.402-8.304 8.465-4.622.037-8.404-3.674-8.458-8.304a8.39 8.39 0 0 1 8.305-8.458c4.621-.044 8.402 3.665 8.457 8.297zm83.07 50.881c.054 5.425-4.296 9.866-9.722 9.911a9.814 9.814 0 0 1-9.92-9.721c-.054-5.415 4.297-9.858 9.713-9.911 5.434-.054 9.875 4.296 9.929 9.721zm-52.434 67.545a5.193 5.193 0 0 1-5.155 5.235 5.195 5.195 0 0 1-5.244-5.145c-.036-2.87 2.274-5.217 5.145-5.254a5.217 5.217 0 0 1 5.254 5.164zm72.202 76.768c.063 6.491-5.154 11.789-11.626 11.862-6.5.064-11.798-5.136-11.861-11.625-.071-6.482 5.136-11.798 11.627-11.852 6.479-.082 11.796 5.135 11.86 11.615zm13.025-64.682c.018 2.428-1.941 4.439-4.379 4.467-2.455.017-4.449-1.95-4.468-4.369a4.404 4.404 0 0 1 4.379-4.476 4.425 4.425 0 0 1 4.468 4.378zm-160.002 37.55c.063 6.49-5.154 11.806-11.644 11.877-6.499.073-11.816-5.144-11.869-11.652-.072-6.482 5.145-11.806 11.635-11.869 6.498-.064 11.815 5.145 11.878 11.644zm-17.954-86.989a7.844 7.844 0 0 1-7.762 7.918 7.843 7.843 0 0 1-7.917-7.764 7.828 7.828 0 0 1 7.763-7.906c4.325-.046 7.871 3.43 7.916 7.752zm-7.148-72.3c.045 4.469-3.538 8.124-8.007 8.178-4.468.036-8.133-3.539-8.177-8.015-.036-4.469 3.547-8.124 8.006-8.161a8.081 8.081 0 0 1 8.178 7.998zm-58.563 37.558c.064 5.902-4.676 10.734-10.569 10.788-5.913.062-10.741-4.677-10.805-10.571-.054-5.905 4.684-10.732 10.588-10.797 5.902-.051 10.732 4.678 10.786 10.58m-1.634 68.033c.036 3.339-2.653 6.083-6.002 6.119-3.349.037-6.093-2.653-6.129-6.012-.036-3.339 2.663-6.083 6.011-6.12 3.34-.027 6.094 2.654 6.12 6.013zm-68.727 11.199c.064 5.552-4.396 10.103-9.965 10.165-5.558.045-10.101-4.413-10.163-9.965-.054-5.561 4.405-10.109 9.963-10.174 5.561-.062 10.111 4.407 10.165 9.974m17.864-87.573c.045 4.207-3.331 7.636-7.529 7.684-4.207.052-7.636-3.324-7.69-7.529-.026-4.199 3.339-7.638 7.537-7.681 4.207-.037 7.645 3.319 7.682 7.526m-257.414-61.044c.089 8.051-6.369 14.623-14.425 14.703-8.033.081-14.605-6.371-14.694-14.415-.077-8.042 6.381-14.623 14.406-14.704 8.055-.072 14.64 6.363 14.713 14.416zm77.31 13.819a7.673 7.673 0 0 1-7.587 7.745c-4.229.036-7.699-3.359-7.73-7.592-.051-4.233 3.349-7.7 7.586-7.736 4.229-.052 7.691 3.359 7.731 7.583zm77.654 17.558c.054 5.884-4.667 10.713-10.57 10.767-5.876.054-10.705-4.667-10.759-10.561-.064-5.886 4.675-10.714 10.551-10.769 5.895-.054 10.714 4.675 10.778 10.563zm-125.796 50.871c.037 3.53-2.802 6.418-6.336 6.463a6.422 6.422 0 0 1-6.472-6.345 6.406 6.406 0 0 1 6.351-6.455c3.532-.045 6.416 2.799 6.457 6.337zm87.605 44.898c.064 6.968-5.533 12.673-12.51 12.735-6.954.082-12.65-5.515-12.726-12.475-.072-6.977 5.523-12.681 12.492-12.745 6.959-.061 12.681 5.534 12.744 12.485zm-114.915 59.717c.068 6.337-5.027 11.518-11.369 11.59-6.332.054-11.531-5.018-11.599-11.363-.059-6.337 5.041-11.526 11.368-11.59 6.343-.064 11.547 5.018 11.6 11.363zm89.222 29.986a5.885 5.885 0 0 1-5.822 5.931c-3.24.026-5.89-2.574-5.935-5.822-.023-3.232 2.572-5.884 5.827-5.931 3.239-.028 5.89 2.583 5.93 5.822zm65.22-50.944c.054 5.38-4.269 9.774-9.632 9.839a9.72 9.72 0 0 1-9.819-9.65c-.064-5.361 4.25-9.776 9.622-9.821 5.38-.054 9.776 4.26 9.829 9.632"></path><linearGradient id="k" x1="199.353" x2="200.943" y1="-1921.621" y2="-1921.621" gradientTransform="scale(413.4313 -413.4313) rotate(.567 -193556.672 -20839.442)" gradientUnits="userSpaceOnUse"><stop offset="0" stop-color="#4191b1"></stop><stop offset="1" stop-color="#4f8acc"></stop></linearGradient><path fill="url(#k)" d="M1334.105 1767.578s-.206 29.168-26.039 29.168c-2.288 0-4.776-.229-7.484-.727-33.271-6.119-100.317-8.629-100.317-8.629s103.142 34.895 111.074 60.612c7.935 25.745-63.139 53.879-63.139 53.879s16.241-4.023 35.153-9.16a9.664 9.664 0 0 1 6.378-2.467h.099c.635 0 1.255.061 1.856.177 17.332-4.823 35.229-10.199 44.03-14.06l7.695-36.519-4.143-40.937-5.163-31.337"></path><path fill="#719bcc" d="M1289.832 1890.254h-.099a9.666 9.666 0 0 0-6.378 2.467 1396.34 1396.34 0 0 0 8.333-2.29 9.79 9.79 0 0 0-1.856-.177"></path><linearGradient id="l" x1="199.557" x2="201.147" y1="-1920.841" y2="-1920.841" gradientTransform="matrix(916.0977 0 0 -916.0977 -182137.875 -1757834.5)" gradientUnits="userSpaceOnUse"><stop offset="0" stop-color="#6980a8"></stop><stop offset="1" stop-color="#6b90b2"></stop></linearGradient><path fill="url(#l)" d="M1442.772 1933.806c-4.854 1.63-11.32 2.99-20.045 3.605-.967.069-1.931.128-2.896.179l.043.002c1.132.045 2.22.066 3.274.066 9.112-.001 15.352-1.62 19.624-3.852m-93.566-5.251c2.823 2.883 4.987 5.027 5.616 5.488 1.543 1.134 15.26 1.75 33.828 2.416-16.385-1.887-30.566-5.367-39.444-7.904m31.545-175.455c-16.311 0-45.265 8.431-45.265 8.431l.003.027h.098c1.381 0 2.602-.146 3.692-.418 7.183-1.74 26.185-6.001 26.185-6.001l28.361.703c-1.667-.614-3.74-1.299-6.428-2.037-1.786-.492-4.056-.705-6.646-.705m53.708-3.042c-9.671 0-16.1 4.288-21.821 6.876 16.922 1.111 42.418 2.75 45.55 2.75.175 0 .281-.005.311-.016.076-.027.389-.182.903-.448l-.516-.976s-8.539-7.419-22.7-8.141a33.851 33.851 0 0 0-1.727-.045"></path><linearGradient id="m" x1="199.353" x2="200.943" y1="-1921.652" y2="-1921.652" gradientTransform="scale(413.4313 -413.4313) rotate(.567 -193556.672 -20839.442)" gradientUnits="userSpaceOnUse"><stop offset="0" stop-color="#4191b1"></stop><stop offset="1" stop-color="#4f8acc"></stop></linearGradient><path fill="url(#m)" d="M1365.464 1755.14s-19.002 4.261-26.185 6.001c-1.089.272-2.31.418-3.692.418h-.098l3.781 37.357 5.46 33.128s-.406 34.21-3.52 40.899c-.416.893-2.388 2.066-5.493 3.428l-6.576 31.205s12.438 13.189 20.064 20.979c8.878 2.537 23.058 6.017 39.444 7.904 9.458.339 20.173.691 31.18 1.13.965-.05 1.93-.11 2.896-.179 8.725-.615 15.191-1.974 20.045-3.605 9.478-4.952 9.272-12.922 9.272-12.922s-7.188.824-15.703.824c-12.719 0-28.393-1.841-27.452-11.017 1.588-15.335-11.979-42.631-11.979-42.631 10.797 39.455-15.047 55.026-15.047 55.026s-.256.03-.693.03c-3.255 0-16.521-1.701-8.584-30.353-5.439-.093-9.841-4.499-9.903-9.964-.054-5.561 4.405-10.109 9.963-10.174h.115a9.99 9.99 0 0 1 5.304 1.515c8.697-40.227-4.08-93.96-4.08-93.96 4.313-1.982 8.153-2.862 11.579-2.862 27.179.005 28.037 55.43 28.037 55.43s14.522-50.213 32.586-53.67a12.862 12.862 0 0 1 2.419-.234c16.192.001 21.59 32.541 21.59 32.541l4.332-9.588a603.18 603.18 0 0 0-2.71-19.097l-12.417-23.477c-.514.266-.826.421-.903.448a1.54 1.54 0 0 1-.311.016c-3.132 0-28.629-1.639-45.55-2.75-1.995.903-3.905 1.599-5.835 1.834-1.182.144-2.151.212-2.991.212-3.556 0-4.795-1.225-9.987-3.138l-28.358-.704"></path><linearGradient id="n" x1="199.353" x2="200.943" y1="-1921.523" y2="-1921.523" gradientTransform="scale(413.4313 -413.4313) rotate(.567 -193556.672 -20839.442)" gradientUnits="userSpaceOnUse"><stop offset="0" stop-color="#4382b9"></stop><stop offset="1" stop-color="#4780c0"></stop></linearGradient><path fill="url(#n)" d="M1471.818 1782.698a609.052 609.052 0 0 1 2.71 19.097l3.405-7.536-6.115-11.561"></path><path fill="#719bcc" d="M1372.762 1872.625h-.115c-5.558.065-10.017 4.613-9.963 10.174.061 5.465 4.463 9.87 9.903 9.964.662-2.389 1.47-4.963 2.445-7.742 1.218-3.473 2.22-7.117 3.034-10.881a9.99 9.99 0 0 0-5.304-1.515"></path><linearGradient id="o" x1="199.353" x2="200.943" y1="-1921.63" y2="-1921.63" gradientTransform="scale(413.4313 -413.4313) rotate(.567 -193556.672 -20839.442)" gradientUnits="userSpaceOnUse"><stop offset="0" stop-color="#4382b9"></stop><stop offset="1" stop-color="#4780c0"></stop></linearGradient><path fill="url(#o)" d="m1339.27 1798.916 4.143 40.937-7.695 36.519c3.105-1.362 5.077-2.535 5.493-3.428 3.113-6.689 3.52-40.899 3.52-40.899l-5.461-33.129"></path><linearGradient id="p" x1="199.517" x2="201.106" y1="-1920.226" y2="-1920.226" gradientTransform="matrix(803.8393 0 0 -803.8393 -159657.484 -1543045.875)" gradientUnits="userSpaceOnUse"><stop offset="0" stop-color="#37d190"></stop><stop offset="1" stop-color="#71b4fe"></stop></linearGradient><path fill="url(#p)" d="M721.996 842.591s7.699 50.828 26.186 66.236c18.486 15.407 279.538 13.15 279.538 13.15l76.318-6.985s190.912-46.505 284.326-79.108c93.414-32.603 517.843-94.073 517.843-94.073l69.178-9.956 11.365-25.941s28.767-49.871 0-105.185c-28.768-55.314-59.701-68.167-59.701-68.167h-27.728l-162.52 59.691-24.841-232.43-10.976-143.844S1463.555 59.426 1238.833 99.864c-224.72 40.438-377.23 193.525-377.23 193.525l-36.394 43.327 87.808 283.067 24.841 58.345v11.554l-14.442 13.286s-135.757-12.601-150.777 2.944c-15.021 15.545-52.76 97.216-50.643 136.679z"></path><linearGradient id="q" x1="199.386" x2="200.975" y1="-1920.4" y2="-1920.4" gradientTransform="matrix(522.27 0 0 -522.27 -103228.133 -1002388.125)" gradientUnits="userSpaceOnUse"><stop offset="0" stop-color="#ff8500"></stop><stop offset="1" stop-color="#e9e41d"></stop></linearGradient><path fill="url(#q)" d="M904.997 603.321s132.8-70.19 344.234-116.983 417.668-16.754 417.668-16.754l49.681 6.934 18.513 99.75-6.816 16.942s-182.115 47.37-414.347 79.144c-232.23 31.773-369.72 24.841-369.72 24.841l-39.213-93.874z"></path><linearGradient id="r" x1="199.557" x2="201.146" y1="-1920.468" y2="-1920.468" gradientTransform="matrix(909.1911 0 0 -909.1911 -180752.61 -1744907.5)" gradientUnits="userSpaceOnUse"><stop offset="0" stop-color="#ff8500"></stop><stop offset="1" stop-color="#e9e41d"></stop></linearGradient><path fill="url(#r)" d="M758.954 916.266h-76.241s-2.338 95.985 18.486 101.166c20.824 5.181 49.293 0 49.293 0l13.73 17.313s22.47 238.883 88.715 323.758c66.245 84.875 40.055 30.951 127.863 57.146 87.809 26.196 167.146-3.845 167.146-3.845l112.117-37.739s58.112-60.847 67.355-110.148c9.243-49.303 16.943-92.603 16.943-92.603s36.394-12.149 58.635-5.217c22.241 6.932 36.106 15.399 36.106 15.399s27.611 126.325 46.54 160.986c18.928 34.661 44.347 50.377 44.347 50.377l117.849 22.79s209.123 6.544 254.76-12.52l45.637-19.064s17.7-52.958 47.75-125.069c30.049-72.111 49.618-233.864 49.618-233.864s-5.055-19.253 0-13.865c5.055 5.389 48.986 11.564 51.296 11.564 2.311 0 23.108-33.668 23.108-33.668l7.699-84.957-245.707 4.622s-416.702 25.427-465.995 31.583c-49.293 6.156-306.563-18.315-306.563-18.315l-350.487-5.83z"></path><linearGradient id="s" x1="198.811" x2="200.4" y1="-1921.494" y2="-1921.494" gradientTransform="matrix(286.3691 0 0 -286.3691 -56082.074 -549086)" gradientUnits="userSpaceOnUse"><stop offset="0" stop-color="#e961ff"></stop><stop offset="1" stop-color="#ff7b4d"></stop></linearGradient><path fill="url(#s)" d="M917.638 1000.481h-62.39s-15.02 121.314 13.286 221.832c28.307 100.519 57.191 107.451 57.191 107.451s150.777 19.641 207.968 8.666c57.191-10.977 69.322-15.02 69.322-15.02s52.57-85.624 67.012-152.285c14.443-66.66 36.395-150.425 36.395-150.425s-274.979-28.307-388.784-20.219z"></path><linearGradient id="t" x1="199.659" x2="201.249" y1="-1921.502" y2="-1921.502" gradientTransform="matrix(284.0635 0 0 -284.0635 -55207.879 -544660.438)" gradientUnits="userSpaceOnUse"><stop offset="0" stop-color="#e961ff"></stop><stop offset="1" stop-color="#ff7b4d"></stop></linearGradient><path fill="url(#t)" d="m1539.23 1014.345-31.186 12.711s6.535 115.149 51.983 216.821c45.448 101.673 53.138 87.041 107.061 93.973 53.924 6.933 214.133-5.388 214.133-5.388s56.225-82.385 71.633-162.124c15.408-79.739-.768-171.997 0-171.311.767.687-317.34-12.41-413.624 15.318z"></path><linearGradient id="u" x1="198.452" x2="200.042" y1="-1921.827" y2="-1921.827" gradientTransform="matrix(313.7251 0 0 -313.7251 -61799.191 -601362.75)" gradientUnits="userSpaceOnUse"><stop offset="0" stop-color="#37d190"></stop><stop offset="1" stop-color="#71b4fe"></stop></linearGradient><path fill="url(#u)" d="m905.773 1989.798-300.352-434.222-141.846-238.82s-23.27-133.392 54.303-167.998c77.572-34.607 150.966 6.932 175.617 33.505 24.651 26.574 44.292 78.567 44.676 99.363.383 20.797-5.394 45.836-8.088 53.535-2.694 7.7-12.709 26.186-12.709 26.186s-28.879-107.451-98.59-110.917c-69.711-3.466-35.817 78.565-35.817 78.565l93.563 149.432 190.271 303.881 92.137 142.554s-48.084 19.804-53.165 64.936z"></path><linearGradient id="v" x1="198.441" x2="200.03" y1="-1924.952" y2="-1924.952" gradientTransform="matrix(173.4798 0 0 -173.4798 -33385.18 -331607.656)" gradientUnits="userSpaceOnUse"><stop offset="0" stop-color="#37d190"></stop><stop offset="1" stop-color="#71b4fe"></stop></linearGradient><path fill="url(#v)" d="m1074.769 2169.722-34.833 25.418 206.984 330.437 68.745-56.017-214.002-329.879z"></path><linearGradient id="w" x1="197.847" x2="199.436" y1="-1922.859" y2="-1922.859" gradientTransform="matrix(148.9771 0 0 -148.9771 -28570.023 -285295.875)" gradientUnits="userSpaceOnUse"><stop offset="0" stop-color="#fbd8ec"></stop><stop offset="1" stop-color="#fff"></stop></linearGradient><path fill="url(#w)" d="m904.997 990.393 138.496 351.368 98.288-1.796-136.335-349.572z"></path><linearGradient id="x" x1="197.382" x2="198.972" y1="-1924.178" y2="-1924.178" gradientTransform="matrix(101.6474 0 0 -101.6474 -19011.23 -194426.281)" gradientUnits="userSpaceOnUse"><stop offset="0" stop-color="#fbd8ec"></stop><stop offset="1" stop-color="#fff"></stop></linearGradient><path fill="url(#x)" d="m1051.879 996.527 127.3 329.77 31.154-9.541 3.105-8.175-120.954-309.553z"></path><linearGradient id="y" x1="199.637" x2="201.226" y1="-1923.11" y2="-1923.11" gradientTransform="matrix(137.6313 0 0 -137.6313 -25841.514 -263508.906)" gradientUnits="userSpaceOnUse"><stop offset="0" stop-color="#fbd8ec"></stop><stop offset="1" stop-color="#fff"></stop></linearGradient><path fill="url(#y)" d="m1634.741 1005.873 127.091 335.888 91.66-8.732-134.193-332.269z"></path><linearGradient id="z" x1="199.955" x2="201.545" y1="-1924.536" y2="-1924.536" gradientTransform="matrix(93.6239 0 0 -93.6239 -16962.229 -179021.203)" gradientUnits="userSpaceOnUse"><stop offset="0" stop-color="#fbd8ec"></stop><stop offset="1" stop-color="#fff"></stop></linearGradient><path fill="url(#z)" d="m1757.981 1000.76 124.01 325.537 24.796-36.606-114.145-293.164z"></path><path fill="#d36e97" d="M2029.657 805.222s-159.22 6.547-155.369 62.777c3.851 56.228-5.372 36.207-5.372 36.207s-25.438-80.883-177.177-61.625c-151.74 19.255-243.4 86.927-243.4 86.927h-124.78l-232.965-7.725s137.412-52.97 353.488-99.207c216.076-46.237 528.027-89.371 528.027-89.371l57.548 72.017zm-628.44 207.102s-29.229 60.658-28.073 60.658h56.903l-28.83-60.658zm46.739 193.813s-50.711-22.337-74.845 16.945c-24.134 39.283-15.564 103.215-15.564 103.215l-86.95 40.823s47.776-53.599 59.131-115.573c11.356-61.973 6.012-73.139 6.012-73.139s31.922-16.277 60.324-16.996c28.4-.72 43.96 24.238 43.96 24.238l7.932 20.487zm-112.258 486.645s-39.283 2.496-86.144-8.318c-46.954-10.815-103.151-12.202-107.773-12.202s-63.962 4.529-62.022 65.164c1.942 60.633-1.201 103.798-1.201 103.798s-34.662 48.618-11.183 95.758c23.569 47.139 3.512 35.585 3.512 35.585s-31.149 2.311-40.577 8.874c-9.428 6.469-4.991-17.563-13.033-30.594-7.95-12.94-51.576-18.395-51.576-18.395l-88.642-134.3-29.207-53.332v-.093l36.601-44.643 90.212-45.476-3.881-38.636-11.832-16.36s-67.935-71.54-73.666-151.584c-3.143-43.35-3.513-45.292-11.832-54.072l2.404-7.488s67.197 36.881 141.142 39.931c73.944 3.143 105.554-.093 105.554-.093l-29.762 26.343s-99.64 98.53-10.352 153.248c89.38 54.719 157.962 38.914 157.962 38.914l23.569-5.824 42.427 32.074 29.3 21.721z"></path><path fill="#d36e97" d="M993.719 1945.009s-42.495 6.819-66.068 63.275c-32.351 77.48-24.124 153.059 46.092 201.922 0 0-25.21 18.112-98.811-9.646-73.602-27.759-125.208-81.452-148.316-181.696-23.108-100.244 50.836-188.679 50.836-188.679l90.119 117.686 32.351 41.928c0-.001 27.381-85.411 93.797-44.79zm92.026 54.592s-39.283-3.187-95.318 92.131c0 0 12.135-55.457 26.865-80.876 14.728-25.418.849-26.287 30.326-38.704 29.476-12.418 38.127 27.449 38.127 27.449zm-16.368 67.677s-24.647 50.066-62.39 63.93c0 0 51.478-1.54 68.103-16.175 16.624-14.635 35.477-55.458 35.477-55.458l-17.74-15.405-23.45 23.108z"></path><path fill="#d36e97" d="M1148.375 2000.503s-24.06 132.336 11.246 215.479c35.308 83.141-60.821-73.103-60.821-73.103s19.296-26.306 16.408-51.146c-2.889-24.841-22.38-47.563-22.38-47.563l-1.052-69.13 56.599 25.463zm59.958 456.329 37.432 77.988-211.99 124.411s-43.655-67.675-51.589-98.933c-7.935-31.256-46.64-191.275-59.349-239.801-12.709-48.527-4.737-104.562-4.737-104.562s76.949 3.466 91.391-2.888c14.442-6.355 25.996-16.175 25.996-16.175l114.959 177.927 57.887 82.033zm501.662-974.129s104.599-3.086 157.746-26.599c53.148-23.512 60.081-53.836 60.081-53.836h-52.377s-201.671 25.823-205.205 25.378c-3.534-.447-2.453 15.818 39.755 55.057z"></path><path fill="#d36e97" d="M1128.702 2037.238s95.476 41.594 151.714 6.932c56.238-34.661 68.562-65.471 68.562-65.471s61.623 16.175 98.978 0c0 0 117.807 107.694 231.247 15.335 0 0-96.069 16.245-137.278-3.396-41.208-19.641-94.355-65.423-94.355-65.423s5.777 22.512-72.019 16.816c-77.795-5.695-17.331-39.238-70.092 5.839-52.762 45.079-104.754 45.464-128.632 46.619-23.878 1.156-38.317 1.577-38.317 1.577l-9.808 41.172zm365.468-373.283s49.681 25.168 108.606 7.096c58.924-18.072 121.856-82.196 121.856-82.196s-58.6 48.236-117.235 54.303c-58.636 6.064-76.183-8.088-76.183-8.088l-37.044 28.885zm355.813-71.922s-69.857 70.098-198.682 66.244c0 0 76.791 40.392 181.373-19.281l17.309-46.963zm-17.287 66.244s-60.657 62.58-112.65 66.625c0 0 73.366 7.837 112.65-53.85v-12.775z"></path><linearGradient id="A" x1="196.242" x2="197.831" y1="-1923.581" y2="-1923.581" gradientTransform="matrix(97.0445 0 0 -97.0445 -18258.021 -185719.5)" gradientUnits="userSpaceOnUse"><stop offset="0" stop-color="#fbd8ec"></stop><stop offset="1" stop-color="#fff"></stop></linearGradient><path fill="url(#A)" d="m785.925 910.362 56.927 86.165h97.316l-47.948-79.811z"></path><linearGradient id="B" x1="194.268" x2="195.858" y1="-1926.487" y2="-1926.487" gradientTransform="matrix(53.8099 0 0 -53.8099 -9515.589 -102706.172)" gradientUnits="userSpaceOnUse"><stop offset="0" stop-color="#fbd8ec"></stop><stop offset="1" stop-color="#fff"></stop></linearGradient><path fill="url(#B)" d="m937.863 919.241 39.277 77.286h46.248l-36.409-76.469z"></path><linearGradient id="C" x1="198.981" x2="200.57" y1="-1924.361" y2="-1924.361" gradientTransform="matrix(80.8939 0 0 -80.8939 -14549.003 -154700.203)" gradientUnits="userSpaceOnUse"><stop offset="0" stop-color="#fbd8ec"></stop><stop offset="1" stop-color="#fff"></stop></linearGradient><path fill="url(#C)" d="m1547.702 935.779 36.202 76.545 92.371-8.962-41.534-78.005z"></path><linearGradient id="D" x1="199.369" x2="200.958" y1="-1926.949" y2="-1926.949" gradientTransform="matrix(50.4003 0 0 -50.4003 -8364.368 -96157.227)" gradientUnits="userSpaceOnUse"><stop offset="0" stop-color="#fbd8ec"></stop><stop offset="1" stop-color="#fff"></stop></linearGradient><path fill="url(#D)" d="m1684.036 929.507 30.751 71.526 49.356-4.506-36.202-74.433z"></path><path fill="#d36e97" d="m1927.822 766.83 26.905 47.828s-46.931 25.226-7.649 103.792l-57.769-4.622-5.777-13.963-36.78-63.98 81.07-69.055z"></path><path fill="#319b91" d="M1238.832 99.866s-54.688 118.039-6.932 395.331c0 0-143.267 26.711-240.319 63.16-97.051 36.449-74.253 37.204-97.621 0-23.367-37.203-69.524-237.237-69.524-237.237s176.389-172.15 414.396-221.254zm53.147 581.732s-158.286 25.648-207.967 64.816c-49.681 39.167-15.02 93.469 90.119 71.517 105.139-21.952 399.759-88.854 604.261-112.016 204.501-23.163 214.65-14.777 214.65-14.777l-17.659 40.718s-461.034 65.052-695.267 130.444c-234.232 65.392-252.397 59.677-252.397 59.677l-284.543-11.616s-27.066-68.984-4.688-138.927c22.38-69.945 47.436-73.6 47.436-73.6s256.495 8.025 506.055-16.236z"></path><path fill="#fc6f06" d="M1230.275 485.58s16.645 89.722 43.219 150.957c0 0 361.037-33.671 461.6-60.268l1.706 15.986s-282.181 63.924-496.946 89.343c-214.765 25.418-295.641 15.598-295.641 15.598L915.327 590.71s120.375-58.519 314.948-105.13z"></path><path fill="#32b6e2" d="M917.881 245.74s41.928 182.252 95.654 301.255l-98.207 47.372-90.89-264.581 93.443-84.046z"></path><path fill="#edd117" d="m1022.006 550.27 40.438 115.537s-94.964 24.335-117.849 18.486c-22.883-5.85-25.61-93.584-25.61-93.584l103.021-40.439z"></path><path fill="#32b6e2" d="m983.109 699.061 3.851 10.266s-123.241 7.317-135.178 69.707c-11.939 62.39 17.715 73.944 17.715 73.944H729.628s-1.086-147.889 47.824-149.428c48.911-1.541 205.657-4.489 205.657-4.489z"></path><path fill="#e5b884" d="M955.034 1423.349s-7.52 170.755 88.459 225.948c0 0-43.823-5.849-35.158 27.079 8.666 32.929 22.478 45.191 22.478 45.191s-44.142-49.003-79.958-26.011-70.766 97.647-70.766 97.647l-33.549-43.254s47.124-69.133 80.919-82.474c33.794-13.341 43.615-19.406 43.615-19.406l-4.044-25.707-27.729-40.149s-40.149-69.901-54.591-110.339c-14.443-40.438.577-71.633.577-71.633l69.747 23.108zm-220.935 490.103h77.244s-16.277 121.474 24.212 206.201c40.489 84.729 98.257 98.971 98.257 98.971s-122.687-29.193-164.172-97.587c-41.484-68.394-56.414-153.016-35.541-207.585zm184.043 326.902 10.081-14.569s60.402 264.361 163.554 392.221l-65.386 35.041s-61.499-131.81-77.943-214.141c-16.443-82.332-30.306-198.552-30.306-198.552z"></path><path fill="#fc6f06" d="m1335.739 1178.408 24.983-98.894h36.975s-15.463 19.81-14.663 81.882l-47.295 17.012z"></path><path fill="#e5b884" d="M977.31 1937.146s-55.628 40.205-74.693 104.907c.001 0-14.099-106.118 74.693-104.907z"></path><path fill="#683e57" d="M1499.271 1394.699s-.199 2.103-.577 6.047c-.407 2.311-1.256 5.94-2.384 9.524-1.426 3.204-2.843 7.076-5.361 10.696-4.667 7.5-11.915 15.154-21.302 21.645-9.397 6.499-20.788 12.077-33.678 16.139-12.89 4.098-27.278 6.634-42.524 7.509-3.918.118-7.465.38-11.825.362-3.781-.135-7.356-.054-11.436-.362-8.304-.587-16.446-1.507-24.659-3.286-16.438-3.374-33.271-9.243-48.59-19.667-14.757-10.507-30.057-26.113-30.175-50.341l.487-6.31c.496-2.744 1.219-5.731 1.977-8.547.903-2.555 1.968-4.874 2.996-7.294 1.139-2.32 2.555-4.431 3.855-6.625 5.65-8.405 12.844-14.994 20.399-20.454 15.3-10.722 32.18-16.897 48.715-20.553 16.447-3.755 33.235-4.675 48.084-3.745 15.905.939 30.113 3.7 43.191 7.935 13.016 4.197 24.462 10.045 33.822 16.807 9.36 6.752 16.527 14.632 21.104 22.286 2.464 3.683 3.828 7.618 5.19 10.868.993 3.44 1.733 6.435 2.158 8.872l.57 7.646-.037.848zm-20.265-.849s-.154-1.552-.453-4.459c-.315-1.434-.829-3.177-1.407-5.243-1.003-1.977-1.734-4.369-3.502-6.789-3.114-4.938-8.286-10.569-15.751-15.695-7.419-5.173-17.042-9.732-28.162-13.26-11.058-3.494-24.046-5.805-37.135-6.454-14.126-.633-28.171.289-42.703 3.177-14.37 2.906-28.848 8.122-40.97 16.391-5.957 4.161-11.319 9.037-15.164 14.568-.822 1.427-1.833 2.789-2.573 4.234l-1.895 4.36c-.261 1.282-.669 2.373-1.093 3.736l-.578 6.31c.072-1.706.028-.388.046-.731l.019.144.026.279.054.579.1 1.155.135 2.311 1.101 4.568 1.823 4.467c.714 1.481 1.706 2.87 2.51 4.332 3.772 5.651 9.089 10.679 15.029 14.994 12.096 8.565 26.629 14.09 41.106 17.275 7.239 1.698 14.596 2.619 21.473 3.25 3.512.352 7.493.352 11.148.542 3.096.054 6.896-.127 10.236-.163 13.747-.695 26.564-3.241 37.802-6.87 11.239-3.655 20.914-8.484 28.306-13.926 7.438-5.389 12.538-11.237 15.553-16.328 1.716-2.491 2.392-4.948 3.34-6.96.434-1.923.84-3.042 1.173-4.594.29-3.946.443-6.057.443-6.057l-.037.857z"></path><path fill="#683e57" d="M1342.049 1458.669c-10.19 0-22.891-4.551-34.823-12.484-9.632-6.392-17.547-14.227-22.313-22.07-5.398-8.881-6.246-16.988-2.365-22.818 2.148-3.241 6.698-7.095 16.104-7.095 10.199 0 22.9 4.55 34.832 12.484 21.547 14.325 32.153 33.613 24.67 44.879-2.15 3.239-6.691 7.104-16.105 7.104zm-43.398-55.224c-2.401 0-6.689.379-8.414 2.979-1.724 2.591-.757 7.41 2.573 12.898 4.071 6.698 11.013 13.504 19.524 19.172 10.309 6.842 21.42 10.932 29.715 10.932 2.402 0 6.689-.38 8.404-2.971 3.783-5.695-4.856-20.625-22.079-32.08-10.308-6.841-21.419-10.93-29.723-10.93zm125.087 55.224c-9.405 0-13.955-3.865-16.103-7.096-7.492-11.273 3.123-30.571 24.678-44.887 11.933-7.934 24.633-12.484 34.824-12.484 9.406 0 13.955 3.854 16.104 7.095 3.881 5.83 3.032 13.937-2.365 22.818-4.766 7.843-12.682 15.678-22.313 22.07-11.935 7.933-24.625 12.484-34.825 12.484zm43.398-55.224c-8.295 0-19.406 4.088-29.714 10.93-17.232 11.455-25.88 26.385-22.097 32.08 1.724 2.59 6.011 2.971 8.413 2.971 8.304.009 19.406-4.09 29.714-10.932 8.512-5.668 15.454-12.475 19.524-19.172 3.331-5.488 4.297-10.308 2.573-12.898-1.724-2.6-6.011-2.979-8.413-2.979zm50.296 92.62c0 7.807-6.336 14.135-14.135 14.135-7.807 0-14.135-6.328-14.135-14.135 0-7.807 6.328-14.135 14.135-14.135 7.799 0 14.135 6.328 14.135 14.135z"></path><circle cx="1587.188" cy="1454.733" r="14.135" fill="#683e57" transform="rotate(-67.5 1587.161 1454.698)"></circle><path fill="#683e57" d="M1605.935 1524.336c0 5.813-4.721 10.525-10.535 10.525-5.813 0-10.524-4.712-10.524-10.525 0-5.813 4.712-10.525 10.524-10.525 5.814 0 10.535 4.712 10.535 10.525zm-412.623-62.139c0 7.809-6.327 14.135-14.131 14.135-7.807 0-14.135-6.327-14.135-14.135 0-7.807 6.328-14.135 14.135-14.135 7.804 0 14.131 6.328 14.131 14.135zm6.924 100.707c0 5.814-4.716 10.525-10.529 10.525s-10.525-4.711-10.525-10.525c0-5.813 4.712-10.523 10.525-10.523 5.813-.001 10.529 4.71 10.529 10.523zm70.36-59.691c0 5.813-4.712 10.525-10.524 10.525-5.822 0-10.534-4.712-10.534-10.525 0-5.813 4.712-10.524 10.534-10.524 5.813 0 10.524 4.711 10.524 10.524z"></path><path fill="#683e57" d="M1396.009 1458.09s-.461 3.087-1.319 8.881a334.069 334.069 0 0 1-5 25.212c-2.483 10.823-6.228 23.911-12.05 38.517-5.868 14.559-14.451 30.552-26.736 45.816-12.212 15.318-27.919 29.688-45.728 42.678-8.918 6.471-18.323 12.681-28.089 18.728-9.848 6.184-23.09 11.282-35.27 13.648-25.039 5.136-51.08 3.295-76.292-2.193-25.292-5.479-49.879-15.363-72.626-29.092-22.272-14.081-44.13-32.097-56.113-59.159-5.772-13.386-7.816-29.525-4.098-44.174 1.77-7.312 4.604-14.128 8.093-20.31 1.999-3.142 3.412-5.614 6.047-9.162l5.546-6.842c3.683-4.54 7.339-9.052 10.954-13.513l12.61-13.133c8.187-9.018 17.403-15.742 25.838-23.189 17.94-13.412 35.704-25.12 53.495-33.199 8.607-4.594 17.511-7.564 25.648-11.048 8.458-2.663 16.288-5.758 23.983-7.556 15.156-4.403 28.798-6.434 39.964-8.132 11.261-1.308 20.134-1.959 26.298-2.022 6.067-.261 9.713.307 9.713.307 4.929.776 8.295 5.398 7.529 10.336-.65 4.116-3.981 7.14-7.925 7.582l-.352.036s-2.591.289-8.214.578c-5.533.272-13.756 1.218-24.119 2.853-10.322 2.013-22.917 4.396-36.818 9.071-7.062 1.932-14.203 5.136-21.911 7.89-7.374 3.575-15.503 6.508-23.257 11.067-16.099 7.961-31.944 19.343-47.885 32.106-7.365 7.031-15.814 13.684-22.502 21.654-3.565 3.845-7.175 7.736-10.818 11.661-3.512 4.549-7.059 9.136-10.638 13.766l-5.384 6.969-3.57 5.749c-2.342 4.143-4.112 8.448-5.217 12.844-2.253 8.784-1.21 18.081 2.626 27.223 7.547 18.531 25.021 35.068 44.378 47.651 19.687 12.529 41.816 21.935 64.309 27.784 22.461 5.786 45.674 8.088 66.731 4.504 10.795-1.887 19.524-4.576 29.091-9.865 9.614-5.408 18.838-10.968 27.522-16.735 17.331-11.573 32.296-24.226 44.003-37.713 11.779-13.44 20.219-27.666 26.267-41.034 5.994-13.404 10.11-25.725 12.935-36.069 2.843-10.336 4.891-18.432 6.138-24.218l2.102-8.719a5.154 5.154 0 0 1 6.22-3.801c2.609.622 4.27 3.167 3.891 5.767z"></path><path fill="#683e57" d="M1494.369 1379.986s.875.009 2.563.017c1.598.054 3.963.144 7.05.253 6.102.317 14.947.911 26.086 2.338 22.223 2.862 53.969 8.602 89.966 22.766 17.909 7.166 36.882 16.373 55.377 28.83 18.594 12.248 36.503 27.964 52.236 46.594 3.746 4.812 7.745 9.487 11.175 14.658l5.361 7.755c2.149 3.447 3.52 6.553 4.883 9.946 5.181 13.333 5.642 28.822 1.119 42.534-4.395 13.656-13.178 25.454-22.223 34.517-9.287 9.442-19.894 17.682-30.851 24.56-22.069 13.955-46.631 22.964-71.254 28.424-24.769 5.307-49.41 7.076-73.601 5.642-13.188-1.409-24.399-5.1-35.293-9.505a198.89 198.89 0 0 1-30.22-15.588c-18.676-11.734-34.472-25.635-47.001-40.195-25.373-29.156-37.089-59.991-42.45-81.444-2.626-10.833-4.026-19.47-4.757-25.375-.668-5.912-1.019-9.062-1.019-9.062a5.433 5.433 0 0 1 4.792-6.021 5.445 5.445 0 0 1 6.011 4.677l.037.287s.406 2.99 1.164 8.594c.803 5.596 2.32 13.764 5.01 23.937 5.496 20.156 17.105 48.751 41.349 75.435 11.969 13.339 26.998 25.995 44.599 36.537 8.782 5.29 18.27 9.948 28.216 13.81 9.83 3.811 20.689 6.879 30.636 7.709 22.16.849 45.791-1.299 68.565-6.733 22.782-5.552 45.24-14.389 64.8-27.368 9.856-6.508 18.756-13.757 26.619-22.053 8.141-8.512 13.973-17.266 16.96-26.952a42.59 42.59 0 0 0-1.309-28.46c-.892-2.122-2.031-4.45-3.078-6.021l-4.883-6.716c-3.186-4.612-6.914-8.756-10.38-13.033-14.587-16.529-31.042-30.383-48.229-41.179-17.069-10.977-34.68-19.073-51.359-25.337-33.534-12.375-63.375-17.142-84.072-19.352a317.308 317.308 0 0 0-24.047-1.642 7605 7605 0 0 0-6.192-.082c-1.309.019-1.986.019-1.986.019l-.317.009c-7.663.09-13.944-6.039-14.035-13.695-.099-7.663 6.029-13.945 13.693-14.035h.289z"></path><path fill="#683e57" d="M1339.098 1572.537s6.607-1.932 16.562-3.593c9.975-1.67 23.416-2.96 36.919-2.997 6.752 0 13.503.182 19.831.74 6.327.461 12.203 1.391 17.222 2.148 5.027.759 9.153 1.814 12.041 2.51l4.514 1.201a4.63 4.63 0 0 1 3.304 5.668 4.645 4.645 0 0 1-4.604 3.457l-.199-.009s-1.642-.045-4.504-.118c-2.835-.225-6.923-.234-11.789-.432-9.74-.371-22.719-.397-35.718-.343-26.104.45-52.199.902-52.199.902a4.66 4.66 0 0 1-1.38-9.134zm277.722 435.747c-71.687 0-146.741-44.654-174.525-84.342l15.147-10.596c29.345 41.909 122.054 91.969 194.852 71.877 22.937-6.319 39.527-20.653 49.312-42.605 14.279-32.052 10.271-72.383 1.877-89.162a663.4 663.4 0 0 0-5.209-10.182c-11.211-21.646-13.611-27.829-7.086-56.109 5.724-24.777 6.608-61.144-9.713-82.095-9.54-12.257-24.56-18.676-44.626-19.09-.65-.019-1.3-.019-1.95-.019-72.446 0-170.382 81.787-171.374 82.618l-11.915-14.134c4.252-3.584 104.083-86.97 183.326-86.97.767 0 1.534 0 2.292.019 25.906.532 45.702 9.361 58.835 26.222 26.185 33.623 15.542 87.203 13.141 97.601-5.243 22.738-4.234 24.696 5.488 43.454 1.58 3.05 3.358 6.48 5.326 10.417 9.649 19.298 15.832 66-1.534 104.958-11.97 26.854-33.155 45.151-61.281 52.894-13.095 3.61-26.679 5.244-40.383 5.244z"></path><path fill="#683e57" d="M1391.143 1947.87c-41.142 0-67.409-14.243-72.058-39.074l-.613-3.232 1.57-2.889c.226-.424 24.282-47.316 3.061-139.863l-1.364-5.94 4.928-3.593c.714-.523 17.719-12.735 40.98-12.735 11.997 0 23.46 3.194 34.138 9.504 6.914-3.357 19.795-8.529 33.451-8.529 18.27 0 32.324 8.973 40.646 25.941 15.922 32.477 8.773 102.45-7.997 140.966-8.015 18.413-17.846 29.497-29.21 32.927-13.692 4.143-31.014 6.517-47.532 6.517zm-53.2-39.824c6.588 19.75 42.09 21.337 53.201 21.337 14.56 0 30.329-2.137 42.19-5.721 5.677-1.715 12.095-9.965 17.61-22.621 16.275-37.368 20.481-100.679 8.34-125.439-5.218-10.643-12.862-15.598-24.047-15.598-14.442 0-28.956 8.557-29.1 8.647l-5.136 3.114-4.937-3.43c-8.873-6.173-18.432-9.305-28.415-9.305-10.686 0-19.759 3.584-25.066 6.272 17.528 82.584.946 129.981-4.64 142.744z"></path><path fill="#683e57" d="M1471.993 1813.072s9.442-3.25 23.459-7.203c14.063-4.026 32.928-8.765 51.947-12.628 19.001-3.918 38.145-6.868 52.543-8.557a393.353 393.353 0 0 1 17.403-1.786c4.198-.371 6.598-.588 6.598-.588s-2.355.497-6.48 1.374a385.281 385.281 0 0 0-17.015 3.845c-14.018 3.376-32.504 8.557-50.664 14.642-18.17 6.028-36.025 12.88-49.185 18.43-13.242 5.516-21.609 9.586-21.609 9.586l-6.997-17.115zm8.403 43.045s6.408 4.757 17.367 11.14c10.804 6.4 25.843 14.126 41.557 20.434 7.834 3.231 15.84 6.039 23.46 8.396 7.609 2.347 14.829 4.332 21.094 5.624a179.795 179.795 0 0 0 15.237 2.898c3.71.604 5.832.947 5.832.947s-2.148-.054-5.904-.154a180.785 180.785 0 0 1-15.607-.84c-6.463-.442-13.982-1.453-22.006-2.789-8.025-1.326-16.555-3.086-24.986-5.297-16.907-4.27-33.46-10.109-45.629-15.254a266.634 266.634 0 0 1-14.641-6.581c-3.547-1.814-5.578-2.842-5.578-2.842l9.804-15.682zm-315.304 152.167c-13.706 0-27.283-1.634-40.389-5.245-28.121-7.744-49.315-26.04-61.284-52.902-17.358-38.959-11.17-85.652-1.526-104.95a723.88 723.88 0 0 1 5.326-10.407c9.721-18.767 10.736-20.726 5.488-43.463-2.397-10.398-13.044-63.978 13.141-97.601 13.134-16.861 32.933-25.69 58.84-26.222.722-.009 1.448-.019 2.175-.019 79.333 0 187.658 87.673 192.28 91.447l-11.689 14.315c-1.093-.885-109.843-89.027-182.387-87.257-20.07.414-35.086 6.833-44.63 19.099-16.321 20.951-15.432 57.308-9.713 82.085 6.525 28.28 4.125 34.472-7.095 56.118-1.544 2.988-3.277 6.327-5.2 10.173-8.389 16.779-12.407 57.101 1.877 89.162 9.78 21.952 26.37 36.286 49.307 42.605 72.87 20.029 165.535-29.977 194.861-71.877l15.147 10.596c-27.783 39.689-102.847 84.334-174.529 84.343z"></path><path fill="#683e57" d="M1332.933 1830.231s-8.358-4.062-21.6-9.586c-13.17-5.552-31.014-12.394-49.194-18.432-18.152-6.084-36.648-11.266-50.665-14.641-7-1.742-12.876-3.005-17.005-3.845-4.125-.868-6.486-1.372-6.486-1.372s2.401.216 6.598.587c4.211.334 10.219.894 17.407 1.786 14.387 1.689 33.537 4.639 52.543 8.557 19.009 3.863 37.875 8.602 51.938 12.638 14.027 3.944 23.469 7.202 23.469 7.202l-7.005 17.106zm8.402 41.611s-2.031 1.038-5.586 2.844a266.683 266.683 0 0 1-14.641 6.58c-12.159 5.144-28.713 10.984-45.629 15.254-8.421 2.21-16.96 3.972-24.985 5.297-8.02 1.337-15.534 2.347-22.006 2.8-6.45.613-11.833.793-15.602.829-3.755.099-5.903.153-5.903.153s2.121-.343 5.831-.939c3.713-.542 8.99-1.443 15.236-2.906 6.269-1.291 13.481-3.276 21.09-5.623 7.62-2.347 15.634-5.164 23.46-8.394 15.724-6.309 30.754-14.028 41.567-20.436 10.949-6.382 17.367-11.13 17.367-11.13l9.801 15.671zm49.141-127.119s.56.352 1.624 1.012c1.138.802 2.265 1.678 3.566 2.996a43.022 43.022 0 0 1 8.069 11.194c2.411 4.819 4.65 10.506 5.939 16.644 1.499 6.111 2.194 12.619 2.627 19.056.226 3.213.135 6.417.207 9.558.1 3.142-.235 6.21-.334 9.17-.145 5.931-1.074 11.393-1.48 16.068-1.363 9.314-2.42 15.435-2.42 15.435s-.099-6.255-.469-15.543c-.461-4.639-.542-10.055-1.471-15.751-.442-2.843-.659-5.813-1.318-8.746-.623-2.934-1.101-5.94-1.859-8.846-1.508-5.832-3.241-11.536-5.497-16.465-2.059-5.027-4.757-9.134-7.131-12.275-2.392-3.177-4.811-5.01-6.3-6.004-.722-.505-1.409-.785-1.48-.785.18.146-.317-.072-.317-.072l8.044-16.646zm-37.009 178.84.641.109c.226.071.713.163 1.534.234 1.526.154 3.864.28 6.653-.019 2.816-.206 6.039-.938 9.351-2.229 1.661-.65 3.332-1.436 4.911-2.491 1.742-.868 3.059-2.311 4.684-3.502 2.861-2.754 5.38-6.077 7.311-9.586.876-1.824 1.724-3.593 2.518-5.263.588-1.796 1.138-3.494 1.652-5.063 1.182-3.151 1.344-5.966 1.85-7.889.379-1.95.605-3.061.605-3.061s.064 1.13.19 3.106c-.009 1.977.56 4.864.208 8.304-.108 1.751-.226 3.647-.343 5.651-.388 2.004-.794 4.115-1.219 6.299a47.771 47.771 0 0 1-5.596 13.325c-1.534 2.004-2.861 4.286-4.739 6.019-1.724 1.923-3.647 3.575-5.642 5.055-3.971 2.933-8.15 5.108-11.905 6.435a49.039 49.039 0 0 1-9.415 2.564 27.09 27.09 0 0 1-3.023.388c-.633.054-.976.081-.976.081l.75-18.467zm-261.71-130.36s1.842 5.147 4.134 12.692c2.324 7.592 5.199 17.736 7.6 27.982 2.432 10.236 4.379 20.553 5.506 28.306 1.169 7.755 1.57 12.943 1.57 12.943s-1.543-4.973-4.364-12.203c-2.789-7.249-6.891-16.717-11.418-25.941-4.495-9.252-9.414-18.261-13.219-24.913-3.818-6.698-6.476-10.868-6.476-10.868l16.667-7.998zm614.777 8.955s-7.483 15.228-14.397 30.816c-7.058 15.515-12.934 31.592-12.934 31.592s1.371-17.133 4.052-34.175c2.528-17.041 5.731-34.065 5.731-34.065l17.548 5.832zM930.64 705.915l-122.6-377.241 5.221-5.929c3.998-4.54 99.791-112.117 259.305-180.736 147.699-63.545 379.145-103.162 642.921 68.906l5.741 3.738 28.244 374.765-27.657 2.078-27.206-361.074c-201.342-129.213-406.566-150.541-610.137-63.348C950.877 224.302 861.417 312.29 839.374 335.37l117.642 361.97-26.376 8.575z"></path><path fill="#683e57" d="m1056.062 902.77 56.771-15.163c18.87-5.164 37.893-10.039 57.028-14.677l57.254-14.19 57.372-13.288c19.1-4.54 38.282-8.692 57.462-12.825l57.542-12.411 57.634-11.952c19.198-4.053 38.496-7.609 57.732-11.436 19.244-3.809 38.507-7.528 57.805-11.012l57.886-10.578c38.624-6.879 77.293-13.44 116.007-19.759 77.483-12.475 154.938-24.408 232.934-34.265l-7.338 5.813 8.565-27.25 2.726-13.892c.731-4.649 2.247-9.243 2.356-13.918l1.037-13.993c.632-4.685.037-9.287-.172-13.918-.479-4.585-.036-9.343-1.237-13.793l-2.644-13.539c-1.354-4.368-2.961-8.656-4.405-12.998-1.291-4.413-3.917-8.231-5.777-12.402-1.796-4.225-4.729-7.79-7.176-11.644-2.338-3.944-5.596-7.22-8.494-10.759-2.79-3.655-6.472-6.499-9.677-9.775-3.394-3.097-7.086-5.876-10.732-8.675-3.818-2.581-7.591-5.226-11.635-7.41-3.872-2.285-8.287-4.369-11.916-5.85l6.129-.126-68.176 25.013c-22.557 8.846-45.791 15.57-68.916 22.665l-34.652 10.733-17.321 5.37-17.539 4.585-70.19 18.233c-23.423 5.966-47.171 10.488-70.739 15.796l-35.419 7.691-35.645 6.499c-23.794 4.171-47.506 8.846-71.354 12.61l-71.66 10.66c-23.875 3.665-47.913 6.012-71.868 9.08l-35.952 4.324-36.042 3.592c-24.024 2.339-48.03 5.01-72.121 6.652-24.078 1.743-48.124 4.054-72.233 5.318-24.109 1.29-48.196 3.059-72.329 3.961-24.132.894-48.25 2.195-72.405 2.609-24.141.731-48.296 1.083-72.464 1.354-24.203.245-48.282.245-72.693-.244l6.396-1.571c-1.937 1.246-5.461 4.253-8.061 6.825-2.716 2.825-5.429 5.732-7.795 9.009-2.585 3.069-4.585 6.67-6.828 10.036-2.063 3.52-3.849 7.248-5.764 10.868l-4.694 11.509-3.673 11.997c-1.052 4.06-1.769 8.25-2.686 12.357-1.046 4.079-1.313 8.368-1.859 12.582-.416 4.244-1.246 8.413-1.201 12.737l-.428 12.87c-.329 4.271.266 8.639.352 12.945l.632 12.962 1.603 12.981c.587 4.313.943 8.645 1.702 12.96l5.018 25.808-27.088 5.938-4.87-27.611c-.726-4.622-1.06-9.333-1.602-14l-1.467-14.017-.46-14.173c-.023-4.739-.546-9.432-.127-14.207l.722-14.27c.064-4.748 1.029-9.513 1.589-14.261.7-4.757 1.124-9.524 2.373-14.227 1.115-4.711 2.04-9.449 3.346-14.126l4.535-13.899 5.799-13.539c2.356-4.36 4.6-8.765 7.19-13.009 2.802-4.133 5.356-8.402 8.652-12.256 3.032-4 6.544-7.7 10.177-11.312 3.98-3.637 7.239-6.705 13.002-10.252l2.781-1.717 3.615.137c23.735.885 47.826 1.308 71.792 1.479 23.996.227 48.001.009 72.017-.459 24.009-.171 48.011-1.237 72.021-1.887 24.009-.667 47.989-2.193 71.986-3.239 24.005-1.02 47.939-3.087 71.917-4.586 23.988-1.398 47.89-3.826 71.819-5.92l35.897-3.222 35.79-4.109c23.829-2.977 47.768-5.235 71.516-8.809l71.3-10.371c23.73-3.657 47.307-8.233 70.974-12.304l35.455-6.345 35.203-7.528c23.433-5.2 47.054-9.612 70.325-15.461l69.729-17.873 17.421-4.495 17.195-5.272 34.39-10.552c22.9-7.103 45.945-13.836 68.23-22.665l67.418-24.949 3.33-1.236 2.808 1.11c5.479 2.184 9.947 4.377 14.569 7.022 4.621 2.491 8.927 5.453 13.251 8.386 4.152 3.149 8.34 6.3 12.222 9.802 3.691 3.7 7.834 6.968 11.075 11.121 3.367 4.025 7.041 7.807 9.794 12.321 2.852 4.405 6.165 8.548 8.304 13.386 2.212 4.765 5.145 9.234 6.698 14.261 1.706 4.966 3.538 9.911 5.082 14.913l3.078 15.39c1.318 5.108.93 10.344 1.462 15.515.262 5.183.867 10.39.227 15.508l-1.093 15.418c-.154 5.181-1.707 10.081-2.491 15.127l-2.943 15.048-9.017 29.038-1.58 5.072-5.758.74c-38.678 4.982-77.455 10.589-116.124 16.437a6064.161 6064.161 0 0 0-115.871 18.702c-38.561 6.662-77.077 13.549-115.53 20.762L1576.518 806c-19.217 3.655-38.389 7.536-57.543 11.508-19.145 3.989-38.344 7.709-57.443 11.924l-57.336 12.43c-19.117 4.133-38.1 8.819-57.155 13.196-19.046 4.424-38.091 8.874-57.028 13.693l-56.911 14.154-56.591 14.992c-18.865 4.902-37.713 10.047-56.55 15.534l-56.524 16.077-7.375-26.738zm-.893 449.189h-.014c-71.936 0-131.469-9.513-132.061-9.605l-3.758-.613-2.239-3.069c-101.939-140.081-76.002-329.951-74.846-337.966l1.078-7.483 7.55-.424a2299.533 2299.533 0 0 1 129.091-3.637c193.985 0 321.794 25.111 323.067 25.364l7.844 1.571-.425 7.987c-8.114 151.861-93.535 298.43-97.164 304.595l-1.823 3.087-3.43 1.056c-41.363 12.692-92.801 19.137-152.87 19.137zm-125.368-27.287c13.969 2.022 65.197 8.801 125.349 8.801h.014c56.546 0 104.945-5.813 143.966-17.277 12.136-21.6 82.723-152.292 92.354-284.989-30.51-5.335-146.792-23.56-311.513-23.56-39.879 0-80.304 1.074-120.276 3.177-3.625 36.151-13.866 195.431 70.106 313.848z"></path><path fill="#683e57" d="M1061.026 1440.806c-114.26 0-185.131-33.298-188.674-35.004l-2.36-1.129-1.783-1.914c-98.639-105.906-115.84-313.332-118.71-368.772h-56.92l-4.039-6.733c-29.805-49.672-23.094-112.362-22.793-115.007l1.404-12.383 12.457.081c5.325.037 533.694 3.575 709.044 25.924h28.686c175.356-22.349 703.714-25.887 709.039-25.924l12.457-.081 1.408 12.383c.298 2.645 7.013 65.335-22.792 115.007l-4.034 6.733h-56.93c-2.87 55.44-20.065 262.866-118.706 368.772l-2.681 2.879-3.8 1.038c-6.508 1.786-161.004 43.372-317.901 23.622l3.467-27.513c138.031 17.393 278.635-15.643 303.313-21.87 102.278-113.905 109.075-358.627 109.129-361.109l.316-13.549h67.77c14.416-28.352 16.202-61.072 15.931-78.484-83.322.713-535.932 5.451-693.334 25.707l-1.769.118-32.224-.118c-157.393-20.256-609.939-24.994-693.311-25.707-.239 17.438 1.571 50.24 15.909 78.484h67.77l.311 13.549c.06 2.482 6.888 248.506 109.946 362.011 15.562 6.69 109.937 43.887 247.034 26.646l3.466 27.512c-27.064 3.413-52.514 4.831-76.096 4.831z"></path><path fill="#683e57" d="M1750.844 1351.959c-60.088 0-111.53-6.444-152.888-19.136l-3.43-1.056-1.822-3.087c-3.638-6.165-89.055-152.735-97.169-304.595l-.424-7.987 7.844-1.571c1.273-.253 129.086-25.364 323.071-25.364 42.813 0 86.248 1.217 129.095 3.637l7.546.424 1.083 7.483c1.146 8.015 27.089 197.885-74.856 337.966l-2.238 3.069-3.755.613c-.596.091-60.134 9.604-132.057 9.604zm-143.979-35.763c39.012 11.464 87.43 17.277 143.979 17.277 60.152 0 111.377-6.778 125.341-8.801 84.081-118.544 73.763-277.715 70.126-313.848a2298.996 2298.996 0 0 0-120.286-3.177c-164.857 0-281.027 18.216-311.518 23.551 9.631 132.706 80.217 263.398 92.358 284.998zm-89.424 84.044a9.23 9.23 0 0 1-7.158-3.384c-57.417-70.018-71.336-185.971-73.673-210.298-42.767-29.055-78.097-7.599-87.998-.289-13.55 132.02-86.763 196.144-89.904 198.843a9.221 9.221 0 0 1-13.011-1.003c-3.327-3.863-2.889-9.693.97-13.024.722-.624 72.175-63.637 83.919-190.449l.343-3.655 2.752-2.428c.542-.478 54.33-46.774 117.235-.515l3.421 2.519.316 4.233c.1 1.31 10.634 132.038 69.927 204.348 3.232 3.946 2.663 9.768-1.291 13.007a9.177 9.177 0 0 1-5.848 2.095zm-73.358-315.155h-85.732l42.866-100.69 42.866 100.69zm-57.769-18.486h29.805l-14.902-35.013-14.903 35.013zm-494.108 327.324s-.018 1.236-.049 3.564c-.023 2.393.044 6.013.22 10.626.348 9.234 1.097 22.573 3.498 38.379 2.45 15.77 5.777 34.192 11.947 53.13 2.892 9.532 6.711 19.054 10.822 28.622 4.337 9.432 8.814 19.056 14.411 28.001 5.311 9.134 11.616 17.601 18.057 25.77 6.743 7.897 13.765 15.389 21.226 21.943a254.13 254.13 0 0 0 22.611 17.701c3.845 2.536 7.587 4.992 11.202 7.374 3.769 2.185 7.41 4.298 10.908 6.328 7.126 3.835 13.784 7.32 19.849 10.092 6.143 2.536 11.36 5.425 15.91 7.058 9.049 3.44 14.248 5.768 14.248 5.768s-5.578-.298-15.399-1.453c-4.96-.397-10.787-1.751-17.584-3.123-6.801-1.363-14.212-3.899-22.384-6.553-7.97-3.151-16.668-6.626-25.315-11.509-8.692-4.767-17.561-10.443-26.099-17.195-8.616-6.662-16.857-14.37-24.832-22.612-7.664-8.503-15.205-17.438-21.699-27.105-6.77-9.505-12.448-19.688-17.769-29.823-4.883-10.336-9.414-20.662-12.93-30.934-7.297-20.462-12.005-40.194-14.655-57.29a350.806 350.806 0 0 1-4.017-41.666c-.099-5.091-.099-9.108-.026-11.914.099-2.872.149-4.405.149-4.405.257-7.655 6.67-13.648 14.32-13.386 7.555.251 13.494 6.508 13.39 14.034l-.01.578zm1048.183-1.228.154 4.405c.072 2.806.072 6.823-.028 11.914a349.708 349.708 0 0 1-4.016 41.666c-2.653 17.095-7.356 36.828-14.659 57.29-3.512 10.272-8.042 20.599-12.926 30.934-5.316 10.135-11.002 20.318-17.773 29.823-6.49 9.667-14.036 18.603-21.69 27.105-7.979 8.242-16.221 15.95-24.832 22.612-8.539 6.752-17.411 12.428-26.105 17.195-8.646 4.883-17.348 8.358-25.318 11.509-8.169 2.654-15.581 5.19-22.386 6.553-6.788 1.372-12.618 2.725-17.583 3.123-9.821 1.155-15.399 1.453-15.399 1.453s5.208-2.328 14.253-5.768c4.549-1.633 9.767-4.521 15.904-7.058 6.067-2.772 12.728-6.257 19.859-10.092 3.492-2.03 7.13-4.143 10.903-6.328 3.62-2.383 7.356-4.838 11.203-7.374a254.378 254.378 0 0 0 22.611-17.701c7.455-6.553 14.486-14.046 21.23-21.943 6.435-8.169 12.736-16.636 18.053-25.77 5.596-8.945 10.073-18.568 14.415-28.001 4.107-9.567 7.924-19.09 10.822-28.622 6.165-18.938 9.487-37.36 11.942-53.13 2.401-15.806 3.149-29.145 3.502-38.379.172-4.613.235-8.233.217-10.626l-.054-3.564v-.56c-.117-7.655 6.002-13.946 13.657-14.063 7.554-.107 13.791 5.877 14.044 13.397zm-673.729 236.284c-.026-.056.922.93 2.42 2.156 1.444 1.282 3.728 3.115 6.806 5.569 2.915 2.519 6.906 5.155 11.228 8.377 4.666 2.789 9.532 6.517 15.39 9.676 2.879 1.644 5.885 3.357 8.99 5.136 3.223 1.516 6.563 3.087 9.993 4.703 3.366 1.751 7.004 3.078 10.741 4.377 3.728 1.319 7.419 3.007 11.338 4.171 7.934 1.932 15.958 4.748 24.47 5.605 4.224.551 8.449 1.563 12.745 1.769l12.971.335c2.157.036 4.333.27 6.49.154l6.445-.705c4.306-.442 8.593-.885 12.844-1.327 8.413-1.571 16.582-3.918 24.615-5.704 7.745-2.979 15.228-5.85 22.332-8.576 7.068-2.889 13.188-6.969 19.19-10.019 5.921-3.204 11.482-6.011 15.859-9.432 4.549-3.16 8.521-5.912 11.789-8.178 6.653-4.476 10.444-7.04 10.444-7.04l.677-.452c3.169-2.129 7.465-1.299 9.595 1.869a6.916 6.916 0 0 1-1.128 9.026l-9.829 8.765-11.464 9.965c-2.284 1.852-4.459 4.143-7.221 5.966-2.781 1.824-5.705 3.728-8.747 5.724-6.228 3.781-12.565 8.619-20.093 12.383-7.654 3.53-15.671 7.519-24.209 11.102-8.945 2.482-18.115 5.614-27.702 7.672-4.883.641-9.812 1.282-14.749 1.931l-7.437.939c-2.492.189-5.01.028-7.519.056l-15.029-.272c-4.991-.244-9.876-1.318-14.759-1.949-9.883-.967-19.027-4.315-28.053-6.744-8.701-3.294-17.241-6.364-24.67-10.488a3057.772 3057.772 0 0 1-10.922-5.804c-3.367-2.122-6.616-4.18-9.739-6.156-6.354-3.755-11.473-8.251-16.248-11.816-4.505-3.97-8.548-7.211-11.59-10.308-3.122-2.889-5.497-5.479-7.139-7.303-1.688-1.796-2.31-2.626-2.31-2.626l-.487-.632a9.081 9.081 0 0 1 1.741-12.728c3.663-2.787 8.772-2.355 11.931.833zm550.501-879.476s7.844 8.747 17.754 22.728c4.993 7.014 10.399 15.472 15.941 24.706 5.417 9.297 10.932 19.397 15.842 29.823 4.992 10.389 9.496 21.039 13.052 31.304 1.787 5.136 3.583 10.064 4.82 14.921 1.308 4.829 2.78 9.286 3.564 13.62 2.005 8.512 2.998 15.761 3.593 20.85.659 5.065.839 7.98.839 7.98.335 5.136-3.564 9.569-8.701 9.903-4.034.261-7.644-2.094-9.161-5.605l-.243-.588s-1.093-2.545-2.681-7.039c-1.417-4.523-4.07-10.823-6.923-18.433-5.904-15.172-14.234-35.211-23.387-55.052-9.162-19.821-19.172-39.4-26.737-54.096-3.773-7.356-6.896-13.521-9.224-17.727-2.212-4.233-3.475-6.66-3.475-6.66l-.054-.109c-2.384-4.549-.614-10.173 3.944-12.555 3.844-2.015 8.457-1.058 11.237 2.029zm165.661-24.426s.623.579 1.805 1.661c1.191 1.147 2.979 2.754 5.065 4.875 4.188 4.268 10.164 10.353 16.933 17.999 6.752 7.663 14.315 16.87 21.997 27.096a455.523 455.523 0 0 1 22.584 33.156c3.52 5.884 7.167 11.669 10.281 17.691 3.142 5.993 6.481 11.742 9.045 17.701 2.646 5.912 5.488 11.453 7.473 17.095 2.068 5.588 4.324 10.705 5.769 15.733 3.232 9.912 5.263 18.351 6.4 24.362 1.264 5.957 1.787 9.387 1.787 9.387.785 5.063-2.69 9.802-7.754 10.589-4.152.64-8.087-1.58-9.802-5.2l-.316-.669s-1.399-2.969-3.52-8.195c-1.102-2.6-2.239-5.804-3.9-9.37-1.752-3.537-3.566-7.581-5.525-11.978-1.958-4.396-4.477-9.043-6.86-14.025-2.365-4.984-5.262-10.12-8.052-15.481-2.753-5.38-6.002-10.786-9.044-16.383-3.078-5.588-6.598-11.076-9.776-16.735-13.449-22.276-28.162-43.966-39.373-60.16-5.605-8.098-10.289-14.866-13.711-19.461-3.321-4.641-5.217-7.284-5.217-7.284l-.127-.172a9.28 9.28 0 0 1 2.14-12.953c3.638-2.609 8.53-2.204 11.698.721z"></path><path fill="#683e57" d="M973.398 1607.261s1.553 7.781 4.988 19.731c3.433 11.833 8.755 27.495 15.651 42.513 3.425 7.52 7.329 14.795 11.297 21.475 2.126 3.221 4.107 6.426 6.142 9.341 2.162 2.844 4.206 5.524 6.093 7.998 2.099 2.311 4.026 4.422 5.732 6.3 1.638 1.978 3.457 3.25 4.779 4.523 2.753 2.435 4.324 3.835 4.324 3.835s-1.747-1.174-4.811-3.214c-1.489-1.082-3.53-2.137-5.434-3.871-1.991-1.661-4.234-3.539-6.684-5.578-2.267-2.247-4.717-4.694-7.312-7.267-2.486-2.69-4.951-5.667-7.605-8.692-4.991-6.253-10.046-13.178-14.631-20.408-9.212-14.452-16.929-29.806-22.182-41.585-5.204-11.697-8.142-20.102-8.142-20.102l-.046-.126c-1.692-4.83.858-10.119 5.692-11.806 4.828-1.689 10.118.857 11.806 5.686.14.398.257.85.343 1.247z"></path><path fill="#683e57" d="M844.795 1756.476a9.204 9.204 0 0 1-5.952-2.175c-3.904-3.286-4.4-9.117-1.11-13.026 68.378-81.157 131.852-99.48 134.524-100.221 4.933-1.344 10.015 1.527 11.373 6.437 1.364 4.911-1.506 10-6.413 11.372-.6.172-60.968 17.917-125.349 94.326a9.23 9.23 0 0 1-7.073 3.287z"></path><path fill="#683e57" d="M896.584 1999.601a9.235 9.235 0 0 1-7.569-3.927c-15.204-21.628-372.897-531.003-424.663-649.249-28.988-66.218-16.988-143.818 29.177-188.723 39.513-38.434 94.881-45.06 151.914-18.179 157.293 74.123 88.377 230.623 87.659 232.194l-8.128 17.89-8.598-17.674c-50.606-104.083-95.196-115.329-107.658-116.304-11.161-.849-20.395 3.421-26.641 12.402-16.821 24.182 17.774 85.309 31.218 104.813l358.966 554.951c2.771 4.287 1.544 10.011-2.744 12.782-4.279 2.77-10.005 1.543-12.781-2.744l-358.811-554.724c-5.894-8.548-58.153-86.627-31.02-125.639 10.055-14.451 25.472-21.573 43.245-20.273 36.999 2.879 77.595 41.711 113.019 107.442 11.906-40.999 25.094-136.226-85.607-188.398-49.658-23.388-97.462-18.045-131.148 14.713-40.754 39.644-51.09 108.75-25.129 168.053 51.03 116.566 419.14 640.754 422.85 646.034 2.937 4.18 1.931 9.948-2.244 12.881a9.179 9.179 0 0 1-5.307 1.679z"></path><path fill="#683e57" d="M887.608 2046.501s-.398-5.198-.221-13.738c.324-8.61.992-20.914 4.133-35.582 3.372-14.488 8.756-31.962 21.51-47.803 6.341-7.835 14.984-14.741 24.966-19.118 9.983-4.441 21.018-6.111 31.471-5.777 10.475.369 20.575 2.257 30.004 5.117 3.593 1.055 4.473 1.571 7.311 2.781 2.917 1.417 5.597 3.014 7.795 4.819 4.585 3.629 8.241 8.304 10.714 13.197 4.757 9.955 5.465 19.858 5.194 28.604-.51 8.801-2.099 16.708-3.891 23.838-3.592 14.263-8.458 25.302-11.937 32.948-3.502 7.635-6.008 11.824-6.008 11.824a3.561 3.561 0 0 1-4.883 1.237 3.572 3.572 0 0 1-1.526-4.27s1.562-4.315 4.008-12.041c2.383-7.717 5.511-18.928 7.741-32.314 1.038-6.688 1.759-13.972 1.485-21.365-.199-7.339-1.445-14.902-4.767-20.788-1.706-2.879-3.877-5.253-6.521-7.121-1.385-1.02-2.708-1.608-3.931-2.203-1.377-.551-4.806-1.797-5.71-1.833-8.39-2.21-16.964-3.592-25.305-3.672-8.335-.065-16.346 1.462-23.252 4.756-6.951 3.241-12.718 8.268-17.511 14.072-9.609 11.762-14.592 26.655-17.511 39.463-3.052 12.908-4.039 24.199-4.518 32.018-.474 7.924-.375 12.139-.375 12.139a9.246 9.246 0 0 1-18.459.948l-.006-.136z"></path><path fill="#683e57" d="M1018.566 1983.408s.533-.641 1.534-1.859c.985-1.173 2.51-2.789 4.6-4.684 4.13-3.801 10.561-9.081 20.612-12.493 5.037-1.67 11.125-2.473 17.664-1.77 6.738.759 12.891 3.584 18.924 8.088l3.222 2.708 3.904 4.296c2.469 2.969 4.161 5.794 5.827 8.926 3.244 6.219 4.972 12.917 6.056 19.552.867 6.651.989 13.277.348 19.631-.623 6.364-1.999 12.447-3.668 18.152-1.625 5.74-3.796 11.003-5.855 15.984-2.405 4.785-4.399 9.47-6.976 13.342-2.352 4.017-4.663 7.563-6.906 10.57-2.135 3.078-4.039 5.723-5.796 7.745-3.429 4.096-5.393 6.434-5.393 6.434a6.393 6.393 0 0 1-10.249-7.609l.238-.369 4.283-6.536c1.445-2.012 2.993-4.585 4.698-7.564 1.819-2.924 3.638-6.317 5.43-10.109 1.973-3.71 3.606-7.899 5.525-12.25 1.575-4.458 3.258-9.142 4.391-14.108 1.228-4.928 1.995-10.09 2.41-15.264.479-5.172.29-10.371-.397-15.38-.885-4.939-2.184-9.758-4.387-13.811-1.042-1.94-2.409-4.07-3.574-5.425a26.93 26.93 0 0 1-1.692-2.049l-3.186-2.626c-2.753-1.995-6.458-4.18-9.857-4.531-3.48-.686-7.063-.461-10.552.143-6.947 1.571-13.066 4.531-17.12 6.87-2.057 1.155-3.569 2.229-4.653 2.879-.993.613-1.517.984-1.557 1.029l-.217.154a5.582 5.582 0 0 1-7.821-1.202c-1.548-2.099-1.398-4.932.19-6.864z"></path><path fill="#683e57" d="M1095.413 2037.901c-.176-.082.993.45 2.591 1.524 1.597 1.021 3.696 2.654 6.173 5.055 4.865 4.756 10.895 13.187 13.815 25.184 3.208 11.924 2.767 26.745-.605 42.549l-.619 2.997c-.46 1.942-.658 2.157-1.01 3.331-.623 1.897-1.26 3.818-1.905 5.777-1.015 3.828-3.696 8.214-5.614 12.448-4.473 8.276-9.816 16.066-16.256 23.684-12.808 15.164-29.336 29.173-48.964 40.447-19.591 11.266-42.419 19.65-66.984 23.116-24.557 3.764-50.683 1.353-75.583-5.596l-9.406-2.573c-3.118-.93-6.06-2.337-9.103-3.483-6.119-2.592-11.933-4.514-18.342-7.7l-16.77-8.964c-5.637-2.69-11.058-7.093-16.592-10.587-11.427-7.022-20.824-16.023-30.946-24.272-9.009-9.395-18.699-18.143-26.339-28.577-8.494-9.74-15.173-20.679-22.024-31.322-3.475-5.29-5.89-11.148-8.846-16.644-2.807-5.578-5.821-11.022-7.748-16.898-2.172-5.759-4.328-11.472-6.464-17.14-2.004-5.706-3.127-11.635-4.698-17.35-3.479-11.401-4.396-23.052-5.984-34.254-1.033-5.597-.722-11.202-.88-16.7-.068-5.506-.136-10.93-.199-16.256.858-10.606 2.153-20.841 3.227-30.663 2.265-9.622 4.437-18.829 6.499-27.594 2.64-8.583 5.908-16.482 8.584-24.036 2.442-7.672 6.188-14.171 9.275-20.363a19958.8 19958.8 0 0 0 8.642-16.934 70922.39 70922.39 0 0 0 19.813-30.022c2.807-4.251 8.535-5.425 12.79-2.619 4.255 2.808 5.425 8.54 2.618 12.791l-.04.063-.57.848s-6.878 10.237-18.911 28.155c-2.476 4.774-5.221 10.063-8.208 15.813-2.938 5.777-6.548 11.852-8.837 18.983-2.531 7.022-5.669 14.37-8.205 22.34-1.986 8.133-4.075 16.681-6.255 25.598-1.03 9.108-2.32 18.595-3.223 28.434.027 4.947.054 9.974.086 15.074.108 5.108-.271 10.317.677 15.515 1.43 10.417 2.121 21.258 5.321 31.9 1.431 5.335 2.393 10.867 4.229 16.211 1.955 5.299 3.926 10.652 5.918 16.049 1.728 5.516 4.535 10.615 7.126 15.869 2.74 5.162 4.92 10.687 8.156 15.669 6.368 10.019 12.52 20.374 20.463 29.589 7.086 9.901 16.183 18.162 24.578 27.124 9.437 7.772 18.437 16.546 28.709 22.908 5.185 3.305 9.572 7.204 15.404 10.057l16.695 9.108c4.895 2.472 11.089 4.675 16.54 7.031 2.834 1.102 5.578 2.463 8.467 3.34l8.715 2.437c23.076 6.643 47.109 9.089 69.787 5.777 45.566-6.03 84.275-30.419 107.928-58.049 11.992-14.117 19.836-28.018 23.054-42.568 3.2-14.39 3.557-27.279 1.002-36.919-2.306-9.766-6.896-16.085-10.43-19.641-1.797-1.751-3.3-2.952-4.297-3.592-.948-.65-1.242-.767-1.408-.868-2.934-1.479-4.103-5.063-2.618-7.997a5.948 5.948 0 0 1 8.001-2.614zm754.054-430.09s.072.532.19 1.535c.172 1.228.235 2.671.316 4.504.045 3.655 0 8.782-.957 14.722-.966 5.929-2.473 12.754-5.236 19.587-2.509 6.924-6.354 13.729-10.497 20.175-2.338 3.05-4.468 6.218-6.915 9.035-2.554 2.735-4.892 5.551-7.438 7.989-2.599 2.354-5.118 4.63-7.501 6.787-2.545 1.931-4.955 3.755-7.175 5.442-4.324 3.485-8.512 5.562-11.175 7.339-2.727 1.689-4.288 2.645-4.288 2.645s1.391-1.192 3.828-3.286c2.355-2.184 6.092-4.829 9.757-8.9 1.878-1.95 3.918-4.071 6.066-6.31 1.94-2.409 3.98-4.945 6.093-7.573 2.022-2.662 3.781-5.659 5.731-8.538 1.842-2.952 3.322-6.174 5.001-9.235 2.788-6.417 5.226-12.906 6.408-19.216 1.444-6.238 1.77-12.169 1.787-17.142.009-5.001-.632-9.044-1.093-11.751-.288-1.346-.504-2.401-.667-2.862-.2-.677-.298-1.038-.298-1.038l-.073-.244a9.279 9.279 0 0 1 6.373-11.472c4.928-1.408 10.065 1.445 11.472 6.373.138.459.236.974.291 1.434z"></path><path fill="#683e57" d="M1843.401 1657.276s1.264.975 3.881 3.357c2.698 2.321 6.201 5.723 10.678 10.073 4.288 4.486 9.686 9.803 15.255 16.392 2.789 3.284 5.758 6.787 8.891 10.479 2.915 3.854 5.975 7.908 9.171 12.141 6.481 8.413 12.583 18.152 19.253 28.297 5.985 10.561 12.791 21.455 18.287 33.516 2.861 5.976 5.967 11.961 8.737 18.179 2.555 6.319 5.146 12.718 7.755 19.164l3.899 9.71 3.168 10.039c2.085 6.715 4.18 13.457 6.282 20.2 3.828 13.577 6.49 27.459 9.722 40.953 2.004 13.719 3.972 27.232 5.885 40.302.75 13.162 1.481 25.888 2.167 37.956.523 6.03.252 11.897.072 17.575-.163 5.677-.317 11.157-.469 16.419-.406 10.506-.434 20.166-1.787 28.614-1.029 8.465-1.923 15.85-2.663 21.933-1.481 12.141-2.32 19.082-2.32 19.082-.623 5.055-5.226 8.656-10.282 8.042-4.919-.594-8.466-4.971-8.087-9.864l.063-.778 1.462-18.585c.47-5.903 1.039-13.069 1.688-21.302 1.002-8.205.524-17.511.623-27.639.028-5.063.054-10.336.081-15.787.054-5.46.189-11.102-.461-16.861-.939-11.536-1.913-23.703-2.934-36.286-1.94-12.448-3.953-25.309-5.993-38.38-3.205-12.825-5.813-26.023-9.559-38.894-2.04-6.392-4.089-12.773-6.12-19.136l-3.069-9.515-3.665-9.234c-2.411-6.137-4.794-12.231-7.158-18.252-2.564-5.929-5.461-11.635-8.106-17.33-5.046-11.536-11.518-21.835-16.925-32.018-6.011-9.785-11.5-19.244-17.366-27.385-2.898-4.107-5.668-8.043-8.314-11.781-2.789-3.62-5.443-7.048-7.942-10.271-4.902-6.527-9.668-11.77-13.441-16.222-3.926-4.278-7.023-7.654-9.117-9.675-2.021-2.095-3.411-3.314-3.411-3.314-3.828-3.367-4.198-9.206-.83-13.033 3.232-3.674 8.737-4.171 12.555-1.228l.444.347zm-599.938 868.301a9.236 9.236 0 0 1-7.771-4.225l-203.924-315.417c-2.771-4.287-1.544-10.01 2.744-12.78a9.243 9.243 0 0 1 12.781 2.742l203.924 315.417c2.772 4.289 1.544 10.011-2.743 12.782a9.226 9.226 0 0 1-5.011 1.481zm71.922-45.033a9.221 9.221 0 0 1-7.745-4.189l-214.092-327.712c-2.788-4.268-1.588-10 2.686-12.79 4.274-2.799 10.006-1.597 12.794 2.68l214.083 327.712c2.799 4.27 1.597 10.002-2.681 12.79a9.175 9.175 0 0 1-5.045 1.509zM609.361 1385.681l-7.064-137.851c-2.428 1.301-4.846 2.628-7.366 3.756-8.968 4.025-16.315 6.326-26.09 7.374-.614 2.22-1.486 4.341-2.672 6.3l2.73 53.372c8.318 9.496 13.354 20.608 18.577 33.137 5.235 12.556 13.707 23.153 21.885 33.912zm133.215-650.124c5.885-9.269 10.281-19.09 18.052-27.268a21.84 21.84 0 0 1 3.593-3.025L559.986 592.995c-5.867-3.232-13.034-3.016-18.72.532a18.507 18.507 0 0 0-8.648 16.617l26.691 521.201c4.193-.713 8.435-1.083 12.673-.615 8.507.939 16.559 2.78 24.48 3.16l-25.22-492.516 171.334 94.183z"></path><path fill="#683e57" d="m2541.761 1682.396-589.205-323.893-2.807 11.238c-2.5 9.984-11.599 16.717-21.41 17.646l568.353 312.429-1811.781 1161.19-66.01-1289.011c-11.875-16.076-27.454-30.672-39.432-47.019L649.613 2894.7a18.476 18.476 0 0 0 10.011 15.49 18.434 18.434 0 0 0 8.454 2.049c3.475 0 6.946-.984 9.974-2.925l1864.775-1195.155a18.484 18.484 0 0 0-1.066-31.763zM904.997 586.856l8.611-4.07c5.714-2.735 14.067-6.319 24.687-10.887 10.706-4.341 23.631-9.802 38.71-15.318 7.528-2.78 15.543-5.73 23.992-8.836 8.512-2.907 17.465-5.966 26.807-9.153 18.568-6.707 39.211-12.33 60.748-19.144 21.87-5.687 44.698-12.548 68.735-17.972 11.987-2.825 24.178-5.704 36.517-8.61 12.352-2.836 25.012-4.975 37.69-7.53 12.718-2.309 25.427-5.28 38.389-7.095 12.944-1.931 25.932-3.88 38.922-5.83l19.479-2.934 19.533-2.212c12.998-1.427 25.96-2.844 38.814-4.261 12.836-1.661 25.643-2.311 38.299-3.052 12.654-.767 25.156-1.524 37.449-2.274 12.294-.984 24.408-1.084 36.26-1.11 11.86-.18 23.459-.362 34.751-.532 22.612-.84 43.941.433 63.654 1.19 9.856.388 19.307.768 28.288 1.128 8.991.272 17.529.443 25.499 1.363 15.976 1.453 29.896 2.708 41.368 3.747l36.078 3.277-2.536 18.306s-12.908-1.625-35.483-4.478a367861.97 367861.97 0 0 0-40.763-5.145c-15.724-2.193-33.65-2.553-53.138-3.917-19.507-1.136-40.627-2.825-63.032-2.437-11.201-.045-22.7-.099-34.462-.154-11.761-.064-23.776-.036-35.97.868l-37.17 2.004c-12.556.658-25.283 1.208-38.028 2.78-12.764 1.316-25.635 2.645-38.552 3.98l-19.407 2.058-19.316 2.997c-12.881 2.004-25.761 4.017-38.597 6.021-12.853 1.867-25.454 4.9-38.063 7.275-12.56 2.609-25.111 4.802-37.351 7.691-12.222 2.96-24.299 5.884-36.174 8.765-11.928 2.68-23.496 5.92-34.769 9.286a44873.018 44873.018 0 0 1-33.1 9.569c-21.216 7.157-41.553 13.088-59.8 20.065-9.162 3.367-17.945 6.59-26.298 9.65-8.237 3.348-16.049 6.517-23.397 9.496-14.694 5.931-27.228 11.716-37.595 16.319-10.267 4.821-18.332 8.602-23.608 11.337-5.389 2.763-8.264 4.244-8.264 4.244l-8.407-16.465z"></path><path fill="#683e57" d="m927.861 2218.833.234 5.037c.217 3.25.533 8.034.934 14.117.885 12.24 2.356 29.751 5.122 50.665 2.32 20.96 6.107 45.286 10.936 71.174 2.749 12.88 4.757 26.348 8.02 39.779l4.526 20.364c1.752 6.761 3.507 13.557 5.263 20.345 3.308 13.639 7.496 27.015 11.463 40.23 3.578 13.341 8.245 26.095 12.344 38.57 3.796 12.602 8.597 24.344 12.741 35.654 2.044 5.668 4.035 11.183 5.957 16.518 2.184 5.235 4.292 10.281 6.319 15.127a29706.8 29706.8 0 0 0 11.084 26.511c3.566 7.781 6.68 14.561 9.243 20.147 5.163 11.166 7.889 17.701 7.889 17.701l-15.06 8.413s-3.85-6.073-10.196-16.978c-3.19-5.443-7.067-12.06-11.508-19.65-4.36-7.646-8.376-16.709-13.255-26.376-2.387-4.866-4.869-9.929-7.443-15.174-2.314-5.352-4.706-10.894-7.165-16.582-4.722-11.463-9.979-23.476-14.317-36.294-4.399-12.791-9.306-25.907-13.146-39.581-4.04-13.611-8.039-27.476-11.275-41.529-1.705-7.005-3.407-14.01-5.104-20.987-1.462-7.024-2.915-14.027-4.355-20.97-3.041-13.854-5.253-27.638-7.414-40.97-3.81-26.736-6.598-51.775-8.051-73.321-1.468-21.547-1.603-39.572-1.652-52.191.058-6.319.212-11.292.37-14.767.158-3.385.244-5.191.244-5.191l17.252.209z"></path></svg>